<?xml version="1.0" encoding="UTF-8" standalone="no"?>
<!-- Generator: Adobe Illustrator 24.2.3, SVG Export Plug-In . SVG Version: 6.00 Build 0)  -->

<svg
   xmlns:dc="http://purl.org/dc/elements/1.1/"
   xmlns:cc="http://creativecommons.org/ns#"
   xmlns:rdf="http://www.w3.org/1999/02/22-rdf-syntax-ns#"
   xmlns:svg="http://www.w3.org/2000/svg"
   xmlns="http://www.w3.org/2000/svg"
   xmlns:sodipodi="http://sodipodi.sourceforge.net/DTD/sodipodi-0.dtd"
   xmlns:inkscape="http://www.inkscape.org/namespaces/inkscape"
   version="1.1"
   id="Ebene_1"
   x="0px"
   y="0px"
   viewBox="0 0 212.6 70.87"
   style="enable-background:new 0 0 212.6 70.87;"
   xml:space="preserve"
   sodipodi:docname="Union_grau.svg"
   inkscape:version="0.92.5 (2060ec1f9f, 2020-04-08)"><metadata
   id="metadata126"><rdf:RDF><cc:Work
       rdf:about=""><dc:format>image/svg+xml</dc:format><dc:type
         rdf:resource="http://purl.org/dc/dcmitype/StillImage" /><dc:title></dc:title></cc:Work></rdf:RDF></metadata><defs
   id="defs124" /><sodipodi:namedview
   pagecolor="#ffffff"
   bordercolor="#666666"
   borderopacity="1"
   objecttolerance="10"
   gridtolerance="10"
   guidetolerance="10"
   inkscape:pageopacity="0"
   inkscape:pageshadow="2"
   inkscape:window-width="1366"
   inkscape:window-height="740"
   id="namedview122"
   showgrid="false"
   inkscape:zoom="3.9113714"
   inkscape:cx="140.43168"
   inkscape:cy="12.738505"
   inkscape:window-x="0"
   inkscape:window-y="0"
   inkscape:window-maximized="1"
   inkscape:current-layer="Ebene_1" />
<style
   type="text/css"
   id="style2">
	.Grün_x0020_bogenförmig{fill:url(#SVGID_1_);stroke:#FFFFFF;stroke-width:0.25;stroke-miterlimit:1;}
	.st0{fill:none;}
	.st1{fill:#354087;}
	.st2{fill:#5B4F44;}
</style>
<linearGradient
   id="SVGID_1_"
   gradientUnits="userSpaceOnUse"
   x1="0"
   y1="70.8701"
   x2="0.7071"
   y2="70.163">
	<stop
   offset="0"
   style="stop-color:#279E4F"
   id="stop4" />
	<stop
   offset="0.9831"
   style="stop-color:#21392A"
   id="stop6" />
</linearGradient>
<rect
   x="9.99"
   class="st0"
   width="202.61"
   height="70.87"
   id="rect9" />
<g
   id="g97"
   style="fill:#757c89;fill-opacity:1">
	<path
   class="st1"
   d="M63.35,33.62c-0.23-0.47-0.34-1.07-0.34-1.76v-5.68h1.65v5.57c0,0.48,0.08,0.89,0.25,1.22   c0.32,0.65,0.95,1.02,1.86,1.02c0.91,0,1.54-0.37,1.86-1.02c0.17-0.33,0.25-0.74,0.25-1.24v-5.55h1.65v5.68   c0,0.7-0.11,1.31-0.34,1.77c-0.56,1.17-1.75,1.75-3.41,1.75C65.08,35.38,63.9,34.8,63.35,33.62z"
   id="path11"
   style="fill:#757c89;fill-opacity:1" />
	<path
   class="st1"
   d="M73.47,26.18h1.64l3.86,4.95c0.41,0.54,0.74,0.99,1.02,1.4h0.03c-0.03-0.48-0.03-1.03-0.03-1.53v-4.83h1.66   v9.06h-1.51l-4-5.16c-0.4-0.51-0.71-0.96-1.02-1.39h-0.03c0.03,0.37,0.03,0.89,0.03,1.4v5.14h-1.65V26.18z"
   id="path13"
   style="fill:#757c89;fill-opacity:1" />
	<path
   class="st1"
   d="M84.66,26.18h1.65v9.06h-1.65V26.18z"
   id="path15"
   style="fill:#757c89;fill-opacity:1" />
	<path
   class="st1"
   d="M88.95,30.74c0-2.75,1.88-4.65,4.56-4.65c2.68,0,4.56,1.91,4.56,4.65c0,2.78-1.92,4.63-4.56,4.63   C90.85,35.38,88.95,33.52,88.95,30.74z M96.32,30.74c0-2.01-1.09-3.26-2.8-3.26c-1.68,0-2.8,1.2-2.8,3.26   c0,2.05,1.13,3.24,2.8,3.24C95.18,33.99,96.32,32.79,96.32,30.74z"
   id="path17"
   style="fill:#757c89;fill-opacity:1" />
	<path
   class="st1"
   d="M100.72,26.18h1.64l3.86,4.95c0.41,0.54,0.74,0.99,1.02,1.4h0.03c-0.03-0.48-0.03-1.03-0.03-1.53v-4.83h1.66   v9.06h-1.51l-4-5.16c-0.4-0.51-0.71-0.96-1.02-1.39h-0.03c0.03,0.37,0.03,0.89,0.03,1.4v5.14h-1.65V26.18z"
   id="path19"
   style="fill:#757c89;fill-opacity:1" />
	<path
   class="st2"
   d="M62.83,41.35h1.58c2.36,0,3.49,1.38,3.49,3.26c0,1.89-1.14,3.33-3.52,3.33h-1.55V41.35z M64.37,47.32   c2.05,0,2.75-1.26,2.75-2.74c0-1.51-0.86-2.61-2.77-2.61h-0.78v5.35H64.37z"
   id="path21"
   style="fill:#757c89;fill-opacity:1" />
	<path
   class="st2"
   d="M69.91,41.35h3.18l-0.23,0.62h-2.21v2.29h2.17v0.61h-2.17v2.45h2.5v0.62h-3.24V41.35z"
   id="path23"
   style="fill:#757c89;fill-opacity:1" />
	<path
   class="st2"
   d="M75.18,41.35h1.34c0.69,0,1.15,0.13,1.49,0.35c0.53,0.33,0.77,0.87,0.77,1.45c0,0.91-0.49,1.48-1.34,1.74v0.02   c0.2,0.1,0.45,0.47,0.79,1.05l1.2,1.98h-0.86l-1.15-1.91c-0.31-0.52-0.56-0.84-0.76-0.89h-0.74v2.8h-0.74V41.35z M76.54,44.52   c0.36,0,0.65-0.07,0.91-0.22c0.34-0.2,0.57-0.57,0.57-1.08c0-0.39-0.13-0.73-0.42-0.94c-0.21-0.18-0.54-0.31-1.05-0.31h-0.63v2.55   H76.54z"
   id="path25"
   style="fill:#757c89;fill-opacity:1" />
	<path
   class="st2"
   d="M84.04,41.35h1.58c2.36,0,3.49,1.38,3.49,3.26c0,1.89-1.14,3.33-3.52,3.33h-1.55V41.35z M85.58,47.32   c2.05,0,2.75-1.26,2.75-2.74c0-1.51-0.86-2.61-2.77-2.61h-0.78v5.35H85.58z"
   id="path27"
   style="fill:#757c89;fill-opacity:1" />
	<path
   class="st2"
   d="M91.11,41.35h3.18l-0.23,0.62h-2.21v2.29h2.17v0.61h-2.17v2.45h2.5v0.62h-3.24V41.35z"
   id="path29"
   style="fill:#757c89;fill-opacity:1" />
	<path
   class="st2"
   d="M96.5,46.64c-0.1-0.31-0.15-0.67-0.15-1.06v-4.23h0.74v4.16c0,0.35,0.04,0.66,0.13,0.92   c0.23,0.62,0.76,0.98,1.58,0.98c0.83,0,1.35-0.36,1.58-0.98c0.1-0.26,0.13-0.57,0.13-0.95v-4.13h0.74v4.23   c0,0.41-0.05,0.77-0.17,1.08c-0.32,0.9-1.11,1.38-2.28,1.38C97.59,48.04,96.81,47.55,96.5,46.64z"
   id="path31"
   style="fill:#757c89;fill-opacity:1" />
	<path
   class="st2"
   d="M104.74,41.97h-1.89v-0.62h4.71l-0.22,0.62h-1.86v5.97h-0.74V41.97z"
   id="path33"
   style="fill:#757c89;fill-opacity:1" />
	<path
   class="st2"
   d="M109.05,46.96c0.32,0.21,0.82,0.44,1.43,0.44c0.71,0,1.33-0.29,1.33-1.07c0-1.58-2.9-1.39-2.9-3.36   c0-0.93,0.71-1.67,1.94-1.67c0.6,0,1.13,0.15,1.43,0.3v0.69c-0.41-0.23-0.91-0.36-1.41-0.36c-0.59,0-1.19,0.26-1.19,0.97   c0,1.49,2.9,1.33,2.9,3.38c0,1.1-0.85,1.76-2.11,1.76c-0.75,0-1.34-0.23-1.73-0.5L109.05,46.96z"
   id="path35"
   style="fill:#757c89;fill-opacity:1" />
	<path
   class="st2"
   d="M119.24,47.58c-0.62,0.33-1.24,0.46-1.84,0.46c-1.97,0-3.14-1.38-3.14-3.31c0-1.92,1.32-3.43,3.27-3.43   c0.7,0,1.3,0.16,1.63,0.35v0.7c-0.46-0.25-0.95-0.41-1.62-0.41c-1.54,0-2.5,1.18-2.5,2.73c0,1.61,0.93,2.73,2.43,2.73   c0.61,0,1.12-0.17,1.57-0.41L119.24,47.58z"
   id="path37"
   style="fill:#757c89;fill-opacity:1" />
	<path
   class="st2"
   d="M121.08,41.35h0.74v2.9h3.62v-2.9h0.74v6.59h-0.74v-3.06h-3.62v3.06h-0.74V41.35z"
   id="path39"
   style="fill:#757c89;fill-opacity:1" />
	<path
   class="st2"
   d="M128.5,41.35h3.18l-0.23,0.62h-2.21v2.29h2.17v0.61h-2.17v2.45h2.5v0.62h-3.24V41.35z"
   id="path41"
   style="fill:#757c89;fill-opacity:1" />
	<path
   class="st2"
   d="M133.78,41.35h0.71l3.06,4c0.42,0.56,0.73,1,0.95,1.34h0.02c-0.01-0.36-0.02-0.65-0.02-1.16v-4.18h0.74v6.59   h-0.62l-3.18-4.16c-0.4-0.52-0.7-0.94-0.93-1.27h-0.02c0.02,0.33,0.03,0.61,0.03,1.13v4.3h-0.74V41.35z"
   id="path43"
   style="fill:#757c89;fill-opacity:1" />
	<path
   class="st2"
   d="M145.85,41.33h0.5l2.52,6.61h-0.79l-0.66-1.77h-2.64l-0.65,1.77h-0.78L145.85,41.33z M147.19,45.55l-0.69-1.9   c-0.2-0.58-0.31-0.89-0.39-1.14h-0.02c-0.07,0.25-0.19,0.56-0.4,1.14l-0.68,1.9H147.19z"
   id="path45"
   style="fill:#757c89;fill-opacity:1" />
	<path
   class="st2"
   d="M150.5,41.35h0.74v3.02h0.02l2.49-3.02h0.89l-2.74,3.26l2.92,3.33h-0.93l-2.63-3.01h-0.02v3.01h-0.74V41.35z"
   id="path47"
   style="fill:#757c89;fill-opacity:1" />
	<path
   class="st2"
   d="M158.28,41.33h0.5l2.52,6.61h-0.79l-0.66-1.77h-2.64l-0.65,1.77h-0.78L158.28,41.33z M159.62,45.55l-0.69-1.9   c-0.2-0.58-0.31-0.89-0.39-1.14h-0.02c-0.07,0.25-0.19,0.56-0.4,1.14l-0.68,1.9H159.62z"
   id="path49"
   style="fill:#757c89;fill-opacity:1" />
	<path
   class="st2"
   d="M162.93,41.35h1.58c2.36,0,3.49,1.38,3.49,3.26c0,1.89-1.14,3.33-3.52,3.33h-1.55V41.35z M164.47,47.32   c2.05,0,2.75-1.26,2.75-2.74c0-1.51-0.86-2.61-2.77-2.61h-0.78v5.35H164.47z"
   id="path51"
   style="fill:#757c89;fill-opacity:1" />
	<path
   class="st2"
   d="M170,41.35h3.18l-0.23,0.62h-2.21v2.29h2.17v0.61h-2.17v2.45h2.5v0.62H170V41.35z"
   id="path53"
   style="fill:#757c89;fill-opacity:1" />
	<path
   class="st2"
   d="M175.28,41.35h0.69l1.84,2.77c0.28,0.42,0.45,0.68,0.61,0.95h0.02c0.16-0.27,0.35-0.57,0.61-0.99l1.73-2.73   h0.69v6.59h-0.74v-4.23c0-0.34,0-0.77,0.02-1.12h-0.02c-0.14,0.27-0.34,0.6-0.47,0.8l-1.63,2.6h-0.39l-1.77-2.65   c-0.14-0.2-0.33-0.48-0.45-0.73H176c0.02,0.31,0.02,0.77,0.02,1.09v4.24h-0.74V41.35z"
   id="path55"
   style="fill:#757c89;fill-opacity:1" />
	<path
   class="st2"
   d="M183.79,41.35h0.74v6.59h-0.74V41.35z"
   id="path57"
   style="fill:#757c89;fill-opacity:1" />
	<path
   class="st2"
   d="M186.85,41.35h3.18l-0.23,0.62h-2.21v2.29h2.17v0.61h-2.17v2.45h2.5v0.62h-3.24V41.35z"
   id="path59"
   style="fill:#757c89;fill-opacity:1" />
	<path
   class="st2"
   d="M192.13,41.35h0.71l3.06,4c0.42,0.56,0.73,1,0.95,1.34h0.02c-0.01-0.36-0.02-0.65-0.02-1.16v-4.18h0.74v6.59   h-0.62l-3.18-4.16c-0.4-0.52-0.7-0.94-0.93-1.27h-0.02c0.02,0.33,0.03,0.61,0.03,1.13v4.3h-0.74V41.35z"
   id="path61"
   style="fill:#757c89;fill-opacity:1" />
	<path
   class="st2"
   d="M62.83,52.85h1.58c2.36,0,3.49,1.38,3.49,3.26c0,1.89-1.14,3.33-3.52,3.33h-1.55V52.85z M64.37,58.82   c2.05,0,2.75-1.26,2.75-2.74c0-1.51-0.86-2.61-2.77-2.61h-0.78v5.35H64.37z"
   id="path63"
   style="fill:#757c89;fill-opacity:1" />
	<path
   class="st2"
   d="M69.91,52.85h3.18l-0.23,0.62h-2.21v2.29h2.17v0.61h-2.17v2.45h2.5v0.62h-3.24V52.85z"
   id="path65"
   style="fill:#757c89;fill-opacity:1" />
	<path
   class="st2"
   d="M75.18,52.85h1.34c0.69,0,1.15,0.13,1.49,0.35c0.53,0.33,0.77,0.87,0.77,1.45c0,0.91-0.49,1.48-1.34,1.74v0.02   c0.2,0.1,0.45,0.47,0.79,1.05l1.2,1.98h-0.86l-1.15-1.91c-0.31-0.52-0.56-0.84-0.76-0.89h-0.74v2.8h-0.74V52.85z M76.54,56.02   c0.36,0,0.65-0.07,0.91-0.22c0.34-0.2,0.57-0.57,0.57-1.08c0-0.39-0.13-0.73-0.42-0.94c-0.21-0.18-0.54-0.31-1.05-0.31h-0.63v2.55   H76.54z"
   id="path67"
   style="fill:#757c89;fill-opacity:1" />
	<path
   class="st2"
   d="M82.99,52.85h0.82l1.28,3.96c0.13,0.43,0.31,0.96,0.44,1.48h0.02c0.16-0.55,0.31-0.98,0.48-1.47L87,53.97   l-0.39-1.12h0.8l1.33,3.98c0.14,0.41,0.33,0.95,0.46,1.45h0.02c0.13-0.52,0.26-0.97,0.41-1.43l1.25-4h0.78l-2.18,6.62h-0.59   l-1.05-3.09c-0.18-0.53-0.32-0.94-0.46-1.42h-0.03c-0.14,0.48-0.26,0.84-0.46,1.42l-1.09,3.09h-0.6L82.99,52.85z"
   id="path69"
   style="fill:#757c89;fill-opacity:1" />
	<path
   class="st2"
   d="M93.28,52.85h0.74v6.59h-0.74V52.85z"
   id="path71"
   style="fill:#757c89;fill-opacity:1" />
	<path
   class="st2"
   d="M96.33,58.46c0.32,0.21,0.82,0.44,1.43,0.44c0.71,0,1.33-0.29,1.33-1.07c0-1.58-2.9-1.39-2.9-3.36   c0-0.93,0.71-1.67,1.94-1.67c0.6,0,1.13,0.15,1.43,0.3v0.69c-0.41-0.23-0.91-0.36-1.41-0.36c-0.59,0-1.19,0.26-1.19,0.97   c0,1.49,2.9,1.33,2.9,3.38c0,1.1-0.85,1.76-2.11,1.76c-0.75,0-1.34-0.23-1.73-0.5L96.33,58.46z"
   id="path73"
   style="fill:#757c89;fill-opacity:1" />
	<path
   class="st2"
   d="M101.83,58.46c0.32,0.21,0.82,0.44,1.43,0.44c0.71,0,1.33-0.29,1.33-1.07c0-1.58-2.9-1.39-2.9-3.36   c0-0.93,0.71-1.67,1.94-1.67c0.6,0,1.13,0.15,1.43,0.3v0.69c-0.41-0.23-0.91-0.36-1.41-0.36c-0.59,0-1.19,0.26-1.19,0.97   c0,1.49,2.9,1.33,2.9,3.38c0,1.1-0.85,1.76-2.11,1.76c-0.75,0-1.34-0.23-1.73-0.5L101.83,58.46z"
   id="path75"
   style="fill:#757c89;fill-opacity:1" />
	<path
   class="st2"
   d="M107.36,52.85h3.18l-0.23,0.62h-2.21v2.29h2.17v0.61h-2.17v2.45h2.5v0.62h-3.24V52.85z"
   id="path77"
   style="fill:#757c89;fill-opacity:1" />
	<path
   class="st2"
   d="M112.64,52.85h0.71l3.06,4c0.42,0.56,0.73,1,0.95,1.34h0.02c-0.01-0.36-0.02-0.65-0.02-1.16v-4.18h0.74v6.59   h-0.62l-3.18-4.16c-0.4-0.52-0.7-0.94-0.93-1.27h-0.02c0.02,0.33,0.03,0.61,0.03,1.13v4.3h-0.74V52.85z"
   id="path79"
   style="fill:#757c89;fill-opacity:1" />
	<path
   class="st2"
   d="M120.4,58.46c0.32,0.21,0.82,0.44,1.43,0.44c0.71,0,1.33-0.29,1.33-1.07c0-1.58-2.9-1.39-2.9-3.36   c0-0.93,0.71-1.67,1.94-1.67c0.6,0,1.13,0.15,1.43,0.3v0.69c-0.41-0.23-0.91-0.36-1.41-0.36c-0.59,0-1.19,0.26-1.19,0.97   c0,1.49,2.9,1.33,2.9,3.38c0,1.1-0.85,1.76-2.11,1.76c-0.75,0-1.34-0.23-1.73-0.5L120.4,58.46z"
   id="path81"
   style="fill:#757c89;fill-opacity:1" />
	<path
   class="st2"
   d="M130.59,59.08c-0.62,0.33-1.24,0.46-1.84,0.46c-1.97,0-3.14-1.38-3.14-3.31c0-1.92,1.32-3.43,3.27-3.43   c0.7,0,1.3,0.16,1.63,0.35v0.7c-0.46-0.25-0.95-0.41-1.62-0.41c-1.54,0-2.5,1.18-2.5,2.73c0,1.61,0.93,2.73,2.43,2.73   c0.61,0,1.12-0.17,1.57-0.41L130.59,59.08z"
   id="path83"
   style="fill:#757c89;fill-opacity:1" />
	<path
   class="st2"
   d="M132.43,52.85h0.74v2.9h3.62v-2.9h0.74v6.59h-0.74v-3.06h-3.62v3.06h-0.74V52.85z"
   id="path85"
   style="fill:#757c89;fill-opacity:1" />
	<path
   class="st2"
   d="M141.66,52.83h0.5l2.52,6.61h-0.79l-0.66-1.77h-2.64l-0.65,1.77h-0.78L141.66,52.83z M143,57.05l-0.69-1.9   c-0.2-0.58-0.31-0.89-0.39-1.14h-0.02c-0.07,0.25-0.19,0.56-0.4,1.14l-0.68,1.9H143z"
   id="path87"
   style="fill:#757c89;fill-opacity:1" />
	<path
   class="st2"
   d="M146.31,52.85h3.19l-0.24,0.62h-2.21v2.29h2.17v0.61h-2.17v3.07h-0.74V52.85z"
   id="path89"
   style="fill:#757c89;fill-opacity:1" />
	<path
   class="st2"
   d="M152.61,53.47h-1.89v-0.62h4.71l-0.22,0.62h-1.86v5.97h-0.74V53.47z"
   id="path91"
   style="fill:#757c89;fill-opacity:1" />
	<path
   class="st2"
   d="M156.94,52.85h3.18l-0.23,0.62h-2.21v2.29h2.17v0.61h-2.17v2.45h2.5v0.62h-3.24V52.85z"
   id="path93"
   style="fill:#757c89;fill-opacity:1" />
	<path
   class="st2"
   d="M162.22,52.85h0.71l3.06,4c0.42,0.56,0.73,1,0.95,1.34h0.02c-0.01-0.36-0.02-0.65-0.02-1.16v-4.18h0.74v6.59   h-0.62l-3.18-4.16c-0.4-0.52-0.7-0.94-0.93-1.27h-0.02c0.02,0.33,0.03,0.61,0.03,1.13v4.3h-0.74V52.85z"
   id="path95"
   style="fill:#757c89;fill-opacity:1" />
</g>
<g
   id="g101"
   style="fill:#757c89;fill-opacity:1">
	<path
   class="st1"
   d="M15.92,46.87c1.5,3.94,5.33,6.28,10.25,6.32v-0.04c-0.16,0-0.31-0.03-0.47-0.03   c-3.35-0.17-5.74-2.09-6.92-5.65l-0.06-0.17c-0.28-0.77-0.74-2.58-0.74-5.98V28.1v-1.84h-3v15.06c0,0.39,0.01,0.75,0.02,1.11   c0.18,2.27,0.58,3.58,0.84,4.23L15.92,46.87z"
   id="path99"
   style="fill:#757c89;fill-opacity:1" />
</g>
<g
   id="g119"
   style="fill:#757c89;fill-opacity:1">
	<path
   class="st1"
   d="M53.82,59.24v-3H31.7c-1.91,1.6-4.36,2.62-7.24,3H53.82z"
   id="path103"
   style="fill:#757c89;fill-opacity:1" />
	<polygon
   class="st2"
   points="69.81,17.24 65.64,14.24 36.2,14.24 36.2,17.24  "
   id="polygon105"
   style="fill:#757c89;fill-opacity:1" />
	<path
   class="st2"
   d="M34.93,51.99c-0.2,0.44-0.42,0.85-0.66,1.25h19.55v-3H35.56C35.37,50.96,35.14,51.54,34.93,51.99z"
   id="path107"
   style="fill:#757c89;fill-opacity:1" />
	<path
   class="st1"
   d="M36.08,47.24L36.08,47.24h17.73v-3H36.2v0.4C36.2,45.61,36.15,46.47,36.08,47.24z"
   id="path109"
   style="fill:#757c89;fill-opacity:1" />
	<rect
   x="36.2"
   y="38.24"
   class="st2"
   width="17.62"
   height="3"
   id="rect111"
   style="fill:#757c89;fill-opacity:1" />
	<rect
   x="36.2"
   y="20.24"
   class="st1"
   width="17.62"
   height="3"
   id="rect113"
   style="fill:#757c89;fill-opacity:1" />
	<rect
   x="36.2"
   y="26.24"
   class="st2"
   width="17.62"
   height="3"
   id="rect115"
   style="fill:#757c89;fill-opacity:1" />
	<rect
   x="36.2"
   y="32.24"
   class="st1"
   width="17.62"
   height="3"
   id="rect117"
   style="fill:#757c89;fill-opacity:1" />
</g>
</svg>