<svg xmlns="http://www.w3.org/2000/svg" width="445" height="177" viewBox="0 0 445 177">
    <defs>
        <filter id="1wylv8eq0a">
            <feColorMatrix in="SourceGraphic" values="0 0 0 0 0.458824 0 0 0 0 0.486275 0 0 0 0 0.537255 0 0 0 1.000000 0"/>
        </filter>
    </defs>
    <g fill="none" fill-rule="evenodd">
        <g transform="translate(-830 -254)">
            <g fill="#757c89">
                <path d="M390.9 157.5L403.632 157.5 403.632 135.183 390.9 135.183zM359.064 157.5L371.792 157.5 371.792 135.183 359.064 135.183zM343.146 157.5L355.874 157.5 355.874 135.183 343.146 135.183zM327.226 157.5L339.955 157.5 339.955 135.183 327.226 135.183zM406.822 157.5L419.546 157.5 419.546 135.183 406.822 135.183zM380.929 39.242c2.803 0 5.082-2.273 5.082-5.082 0-2.805-2.279-5.082-5.082-5.082-2.81 0-5.086 2.277-5.086 5.082 0 2.809 2.276 5.082 5.086 5.082M374.982 166.234L387.71 166.234 387.71 135.183 374.982 135.183zM422.74 157.5L435.468 157.5 435.468 135.183 422.74 135.183zM374.982 129.828L387.71 129.828 387.71 107.512 374.982 107.512zM390.9 129.828L403.632 129.828 403.632 107.512 390.9 107.512zM359.064 129.828L371.792 129.828 371.792 107.512 359.064 107.512zM343.146 129.828L355.874 129.828 355.874 107.512 343.146 107.512zM327.226 129.828L339.955 129.828 339.955 107.512 327.226 107.512zM406.822 129.828L419.546 129.828 419.546 107.512 406.822 107.512zM422.74 129.828L435.468 129.828 435.468 107.512 422.74 107.512zM374.982 102.273L387.71 102.273 387.71 79.957 374.982 79.957zM390.9 102.273L403.632 102.273 403.632 79.957 390.9 79.957zM359.064 102.273L371.792 102.273 371.792 79.957 359.064 79.957zM343.146 102.273L355.874 102.273 355.874 79.957 343.146 79.957zM327.226 102.273L339.955 102.273 339.955 79.957 327.226 79.957zM406.822 102.273L419.546 102.273 419.546 79.957 406.822 79.957zM422.74 102.273L435.468 102.273 435.468 79.957 422.74 79.957z" transform="translate(830 254.5)"/>
                <path d="M444.261.824h-3.914v6.637l-117.982.004V.824h-3.918v174.313h125.814V.824zM353.019 40.23l27.967-27.683 27.969 27.683v28.676h-55.936V40.23zm-32.926 129.571h122.522V73.562H320.093v96.239zM8.496 136.726L8.496 135.789 2.121 135.789 2.121 151.57 3.121 151.57 3.121 143.398 8.34 143.398 8.34 142.461 3.121 142.461 3.121 136.726 8.496 136.726M12.84 143.148v-6.422h.656c.922 0 1.984-.047 2.828.36 1.125.5 1.672 1.672 1.672 2.843 0 .938-.359 1.891-1.109 2.485-.797.703-1.782.734-2.766.734H12.84zm1.64.953c2.625.032 4.532-1.39 4.532-4.125 0-1.343-.469-2.609-1.594-3.39-1.078-.782-2.328-.797-3.609-.797H11.84v15.781h1v-7.469h.5l5.156 7.469h1.156l-5.172-7.469zM30.035 136.726L30.035 135.789 22.488 135.789 22.488 151.57 30.035 151.57 30.035 150.633 23.488 150.633 23.488 143.398 29.863 143.398 29.863 142.461 23.488 142.461 23.488 136.726 30.035 136.726M33.535 151.57L34.535 151.57 34.535 135.789 33.535 135.789zM45.879 136.726L45.879 135.789 38.332 135.789 38.332 151.57 45.879 151.57 45.879 150.633 39.332 150.633 39.332 143.398 45.707 143.398 45.707 142.461 39.332 142.461 39.332 136.726 45.879 136.726M57.41 137.789c-.765-1.36-2.265-2.219-3.859-2.219-2.375 0-4.047 1.656-4.047 4 0 1.266.578 2.188 1.625 2.828l2.859 1.516c1.36.656 3.188 1.422 3.188 3.203 0 2.094-1.828 3.719-3.906 3.719-1.907 0-3.141-1.172-3.813-2.844l-.875.391c.734 2.031 2.453 3.39 4.656 3.39 2.547 0 4.938-1.969 4.938-4.578 0-1.422-.61-2.391-1.797-3.141l-3.016-1.578c-1.281-.593-2.859-1.297-2.859-2.937 0-1.656 1.281-3.016 2.984-3.016 1.485 0 2.485.719 3.203 1.86l.719-.594M69.57 150.633v-13.907h1.828c1.969 0 3.61.36 5.11 1.719 1.5 1.359 2.297 3.25 2.297 5.25 0 1.891-.766 3.688-2.11 5.031-1.5 1.485-3.218 1.907-5.297 1.907H69.57zm-1 .937h2.844c2.359 0 4.219-.422 5.953-2.094 1.594-1.531 2.438-3.593 2.438-5.781 0-2.266-.86-4.375-2.516-5.922-1.734-1.609-3.562-1.984-5.875-1.984H68.57v15.781zM90.215 136.726L90.215 135.789 82.668 135.789 82.668 151.57 90.215 151.57 90.215 150.633 83.668 150.633 83.668 143.398 90.043 143.398 90.043 142.461 83.668 142.461 83.668 136.726 90.215 136.726M103.293 145.336c0 1.422 0 2.922-.814 3.968-.78 1.016-2.328 1.532-3.545 1.532-1.219 0-2.766-.516-3.547-1.532-.813-1.046-.813-2.546-.813-3.968v-9.547h-1.015v9.828c0 1.625 0 3 1.078 4.312 1.062 1.219 2.703 1.844 4.297 1.844 1.592 0 3.234-.625 4.295-1.844 1.064-1.312 1.064-2.687 1.064-4.312v-9.828h-1v9.547M111.496 136.726L115.59 136.726 115.59 135.789 106.401 135.789 106.401 136.726 110.496 136.726 110.496 151.57 111.496 151.57 111.496 136.726M125.858 137.789c-.764-1.36-2.264-2.219-3.858-2.219-2.375 0-4.047 1.656-4.047 4 0 1.266.577 2.188 1.625 2.828l2.86 1.516c1.359.656 3.187 1.422 3.187 3.203 0 2.094-1.828 3.719-3.906 3.719-1.906 0-3.141-1.172-3.814-2.844l-.875.391c.736 2.031 2.453 3.39 4.658 3.39 2.545 0 4.937-1.969 4.937-4.578 0-1.422-.609-2.391-1.797-3.141l-3.015-1.578c-1.283-.593-2.86-1.297-2.86-2.937 0-1.656 1.28-3.016 2.985-3.016 1.484 0 2.484.719 3.203 1.86l.717-.594M142.215 137.633c-1.406-1.313-3.344-2.063-5.25-2.063-4.486 0-8.266 3.641-8.266 8.125 0 4.422 3.844 8.078 8.25 8.078 1.952 0 3.766-.719 5.266-1.969v-1.375c-1.189 1.422-3.486 2.407-5.314 2.407-1.858 0-3.75-.922-5.077-2.172-1.312-1.297-2.109-3.047-2.109-4.875 0-3.875 3.25-7.266 7.186-7.266 1.953 0 4.095 1 5.314 2.485v-1.375M146.582 142.476L146.582 135.789 145.582 135.789 145.582 151.57 146.582 151.57 146.582 143.429 156.19 143.429 156.19 151.57 157.19 151.57 157.19 135.789 156.19 135.789 156.19 142.476 146.582 142.476M168.574 136.726L168.574 135.789 161.026 135.789 161.026 151.57 168.574 151.57 168.574 150.633 162.026 150.633 162.026 143.398 168.401 143.398 168.401 142.461 162.026 142.461 162.026 136.726 168.574 136.726M180.104 137.789c-.764-1.36-2.264-2.219-3.858-2.219-2.375 0-4.047 1.656-4.047 4 0 1.266.577 2.188 1.625 2.828l2.86 1.516c1.359.656 3.187 1.422 3.187 3.203 0 2.094-1.828 3.719-3.906 3.719-1.906 0-3.141-1.172-3.814-2.844l-.875.391c.736 2.031 2.453 3.39 4.658 3.39 2.545 0 4.937-1.969 4.937-4.578 0-1.422-.609-2.391-1.797-3.141l-3.015-1.578c-1.283-.593-2.86-1.297-2.86-2.937 0-1.656 1.28-3.016 2.985-3.016 1.484 0 2.484.719 3.203 1.86l.717-.594M192.266 142.476L192.266 135.789 191.266 135.789 191.266 151.57 192.266 151.57 192.266 143.429 201.875 143.429 201.875 151.57 202.875 151.57 202.875 135.789 201.875 135.789 201.875 142.476 192.266 142.476M214.043 136.523c3.922 0 7.186 3.266 7.186 7.156 0 3.875-3.264 7.157-7.186 7.157-3.939 0-7.189-3.266-7.189-7.157 0-3.89 3.25-7.156 7.189-7.156zm0-.953c-4.469 0-8.203 3.672-8.203 8.109 0 4.438 3.764 8.094 8.203 8.094 4.453 0 8.203-3.656 8.203-8.094 0-4.437-3.75-8.109-8.203-8.109zM237.788 137.633c-1.406-1.313-3.345-2.063-5.249-2.063-4.484 0-8.267 3.641-8.267 8.125 0 4.422 3.845 8.078 8.25 8.078 1.954 0 3.766-.719 5.266-1.969v-1.375c-1.187 1.422-3.484 2.407-5.311 2.407-1.86 0-3.75-.922-5.08-2.172-1.311-1.297-2.108-3.047-2.108-4.875 0-3.875 3.25-7.266 7.188-7.266 1.952 0 4.091 1 5.311 2.485v-1.375M242.236 142.476L242.236 135.789 241.236 135.789 241.236 151.57 242.236 151.57 242.236 143.429 251.847 143.429 251.847 151.57 252.847 151.57 252.847 135.789 251.847 135.789 251.847 142.476 242.236 142.476M264.796 137.789c-.767-1.36-2.267-2.219-3.859-2.219-2.375 0-4.047 1.656-4.047 4 0 1.266.578 2.188 1.625 2.828l2.859 1.516c1.358.656 3.188 1.422 3.188 3.203 0 2.094-1.83 3.719-3.908 3.719-1.905 0-3.139-1.172-3.811-2.844l-.875.391c.734 2.031 2.453 3.39 4.656 3.39 2.547 0 4.938-1.969 4.938-4.578 0-1.422-.61-2.391-1.797-3.141l-3.016-1.578c-1.281-.593-2.859-1.297-2.859-2.937 0-1.656 1.281-3.016 2.984-3.016 1.483 0 2.483.719 3.203 1.86l.719-.594M272.189 136.726L276.284 136.726 276.284 135.789 267.097 135.789 267.097 136.726 271.189 136.726 271.189 151.57 272.189 151.57 272.189 136.726M278.607 151.57L279.607 151.57 279.607 135.789 278.607 135.789zM289.861 136.726L289.861 135.789 283.486 135.789 283.486 151.57 284.486 151.57 284.486 143.398 289.706 143.398 289.706 142.461 284.486 142.461 284.486 136.726 289.861 136.726M296.812 136.726L300.904 136.726 300.904 135.789 291.718 135.789 291.718 136.726 295.812 136.726 295.812 151.57 296.812 151.57 296.812 136.726M8.23 160.64L8.23 159.703 1.871 159.703 1.871 175.484 2.871 175.484 2.871 167.312 8.09 167.312 8.09 166.375 2.871 166.375 2.871 160.64 8.23 160.64M12.066 167.062v-6.422h.641c.922 0 2-.046 2.828.36 1.141.5 1.672 1.672 1.672 2.844 0 .937-.344 1.89-1.109 2.484-.782.703-1.766.734-2.75.734h-1.282zm1.625.953c2.625.032 4.532-1.39 4.532-4.125 0-1.343-.469-2.609-1.594-3.39-1.063-.781-2.328-.797-3.609-.797h-1.954v15.781h1v-7.469h.5l5.157 7.469h1.14l-5.172-7.469zM29.285 169.344h-6.172l3.094-7.61 3.078 7.61zm.375.953l2.125 5.187h1.016l-6.594-16.312-6.609 16.312h1.015l2.125-5.187h6.922zM48.773 159.703L47.773 159.703 47.773 173.469 34.523 159.484 34.523 175.484 35.523 175.484 35.523 161.922 48.773 176 48.773 159.703M53.102 167.062L53.102 159.703 52.102 159.703 52.102 175.484 53.102 175.484 53.102 168.359 53.523 167.953 61.102 175.484 62.414 175.484 54.211 167.297 61.93 159.703 60.602 159.703 53.102 167.062M70.285 160.64L70.285 159.703 63.926 159.703 63.926 175.484 64.926 175.484 64.926 167.312 70.145 167.312 70.145 166.375 64.926 166.375 64.926 160.64 70.285 160.64M82.684 169.25c0 1.422 0 2.922-.813 3.969-.781 1.015-2.328 1.531-3.547 1.531-1.219 0-2.765-.516-3.531-1.531-.828-1.047-.828-2.547-.828-3.969v-9.547h-1v9.828c0 1.625 0 3 1.062 4.313 1.078 1.218 2.703 1.843 4.297 1.843 1.594 0 3.235-.625 4.297-1.843 1.063-1.313 1.063-2.688 1.063-4.313v-9.828h-1v9.547M87.855 167.062v-6.422h.641c.922 0 2-.046 2.828.36 1.141.5 1.672 1.672 1.672 2.844 0 .937-.344 1.89-1.109 2.484-.782.703-1.766.734-2.75.734h-1.282zm1.625.953c2.625.032 4.532-1.39 4.532-4.125 0-1.343-.469-2.609-1.594-3.39-1.063-.781-2.328-.797-3.609-.797h-1.954v15.781h1v-7.469h.5l5.157 7.469h1.14l-5.172-7.469zM100.078 160.64L104.155 160.64 104.155 159.703 94.984 159.703 94.984 160.64 99.062 160.64 99.062 175.484 100.078 175.484 100.078 160.64M113.418 160.64L113.418 159.703 105.887 159.703 105.887 175.484 113.418 175.484 113.418 174.547 106.887 174.547 106.887 167.312 113.246 167.312 113.246 166.375 106.887 166.375 106.887 160.64 113.418 160.64M117.405 167.062v-6.422h.642c.922 0 2-.046 2.828.36 1.141.5 1.672 1.672 1.672 2.844 0 .937-.344 1.89-1.109 2.484-.783.703-1.766.734-2.75.734h-1.283zm1.625.953c2.625.032 4.533-1.39 4.533-4.125 0-1.343-.469-2.609-1.594-3.39-1.064-.781-2.328-.797-3.611-.797h-1.953v15.781h1v-7.469h.5l5.158 7.469h1.14l-5.173-7.469zM140.655 167.89v.938h5.658c-.063 1.719-.58 3.031-1.938 4.187-1.297 1.047-2.953 1.735-4.642 1.735-3.936 0-7.155-3.266-7.155-7.156 0-3.797 3.297-7.157 7.155-7.157 2.547 0 4.689 1.297 6.095 3.391l.813-.656c-1.658-2.266-3.986-3.688-6.844-3.688-4.531 0-8.234 3.641-8.234 8.172 0 4.359 3.734 8.031 8.109 8.031 2.219 0 4.483-.922 5.983-2.547 1.408-1.531 1.703-3.265 1.658-5.25h-6.658M156.926 160.437c3.922 0 7.186 3.266 7.186 7.157 0 3.875-3.264 7.156-7.186 7.156-3.939 0-7.172-3.266-7.172-7.156 0-3.891 3.233-7.157 7.172-7.157zm0-.953c-4.453 0-8.189 3.672-8.189 8.11 0 4.437 3.75 8.093 8.189 8.093 4.436 0 8.186-3.656 8.186-8.093 0-4.438-3.75-8.11-8.186-8.11zM175.03 160.64L175.03 159.703 167.5 159.703 167.5 175.484 175.03 175.484 175.03 174.547 168.5 174.547 168.5 167.312 174.858 167.312 174.858 166.375 168.5 166.375 168.5 160.64 175.03 160.64M181.535 160.64L185.612 160.64 185.612 159.703 176.44 159.703 176.44 160.64 180.52 160.64 180.52 175.484 181.535 175.484 181.535 160.64M188.344 166.39L188.344 159.703 187.344 159.703 187.344 175.484 188.344 175.484 188.344 167.344 197.938 167.344 197.938 175.484 198.938 175.484 198.938 159.703 197.938 159.703 197.938 166.39 188.344 166.39M209.785 160.64L209.785 159.703 202.254 159.703 202.254 175.484 209.785 175.484 209.785 174.547 203.254 174.547 203.254 167.312 209.612 167.312 209.612 166.375 203.254 166.375 203.254 160.64 209.785 160.64M211.069 169.265L215.055 169.265 215.055 168.328 211.069 168.328zM232.559 175.484L233.525 175.484 230.137 159.172 224.308 173.531 218.512 159.172 215.121 175.484 216.09 175.484 218.793 162.422 218.824 162.422 224.308 176 229.824 162.422 229.854 162.422 232.559 175.484M244.909 169.25c0 1.422 0 2.922-.812 3.969-.783 1.015-2.328 1.531-3.547 1.531-1.219 0-2.766-.516-3.531-1.531-.83-1.047-.83-2.547-.83-3.969v-9.547h-1v9.828c0 1.625 0 3 1.064 4.313 1.078 1.218 2.703 1.843 4.297 1.843 1.594 0 3.234-.625 4.297-1.843 1.062-1.313 1.062-2.688 1.062-4.313v-9.828h-1v9.547M257.097 161.703c-.75-1.359-2.266-2.219-3.861-2.219-2.358 0-4.03 1.656-4.03 4 0 1.266.578 2.188 1.625 2.828l2.844 1.516c1.359.656 3.186 1.422 3.186 3.203 0 2.094-1.827 3.719-3.889 3.719-1.908 0-3.141-1.172-3.813-2.844l-.875.391c.735 2.031 2.438 3.39 4.641 3.39 2.561 0 4.936-1.968 4.936-4.578 0-1.422-.608-2.39-1.797-3.14l-3.014-1.579c-1.281-.593-2.844-1.296-2.844-2.937 0-1.656 1.28-3.016 2.969-3.016 1.484 0 2.5.719 3.203 1.86l.719-.594M267.913 160.64L267.913 159.703 260.382 159.703 260.382 175.484 267.913 175.484 267.913 174.547 261.382 174.547 261.382 167.312 267.741 167.312 267.741 166.375 261.382 166.375 261.382 160.64 267.913 160.64M280.464 169.25c0 1.422 0 2.922-.814 3.969-.78 1.015-2.327 1.531-3.546 1.531-1.218 0-2.765-.516-3.531-1.531-.828-1.047-.828-2.547-.828-3.969v-9.547h-1v9.828c0 1.625 0 3 1.063 4.313 1.078 1.218 2.703 1.843 4.296 1.843 1.594 0 3.235-.625 4.296-1.843 1.064-1.313 1.064-2.688 1.064-4.313v-9.828h-1v9.547M300.558 175.484L301.525 175.484 298.136 159.172 292.308 173.531 286.511 159.172 283.12 175.484 284.089 175.484 286.792 162.422 286.823 162.422 292.308 176 297.822 162.422 297.854 162.422 300.558 175.484M19.656 102.172v2.031h12.235c-.141 3.672-1.235 6.516-4.172 8.984-2.813 2.235-6.391 3.719-10.047 3.719-8.516 0-15.5-7-15.5-15.359 0-8.141 7.156-15.375 15.5-15.375 5.515 0 10.141 2.797 13.172 7.281l1.765-1.391c-3.578-4.843-8.609-7.906-14.812-7.906C8.016 84.156 0 91.969 0 101.687c0 9.344 8.063 17.25 17.531 17.25 4.797 0 9.688-1.984 12.953-5.484 3.032-3.281 3.657-7.016 3.578-11.281H19.656M55.543 86.172c8.469 0 15.531 7.015 15.531 15.375 0 8.312-7.062 15.359-15.531 15.359-8.5 0-15.531-7-15.531-15.359 0-8.36 7.031-15.375 15.531-15.375zm0-2.016c-9.641 0-17.703 7.859-17.703 17.391 0 9.531 8.109 17.39 17.703 17.39 9.609 0 17.719-7.859 17.719-17.39 0-9.532-8.11-17.391-17.719-17.391zM95.387 86.625L95.387 84.609 79.09 84.609 79.09 118.484 95.387 118.484 95.387 116.469 81.262 116.469 81.262 100.969 95.027 100.969 95.027 98.937 81.262 98.937 81.262 86.625 95.387 86.625M110.155 86.625L118.983 86.625 118.983 84.609 99.141 84.609 99.141 86.625 107.983 86.625 107.983 118.484 110.155 118.484 110.155 86.625M125.59 98.984L125.59 84.609 123.418 84.609 123.418 118.484 125.59 118.484 125.59 101 146.324 101 146.324 118.484 148.496 118.484 148.496 84.609 146.324 84.609 146.324 98.984 125.59 98.984M172.655 86.625L172.655 84.609 156.358 84.609 156.358 118.484 172.655 118.484 172.655 116.469 158.53 116.469 158.53 100.969 172.297 100.969 172.297 98.937 158.53 98.937 158.53 86.625 172.655 86.625M175.012 105.14L183.621 105.14 183.621 103.125 175.012 103.125zM189.473 98.984L189.473 84.609 187.301 84.609 187.301 118.484 189.473 118.484 189.473 101 210.207 101 210.207 118.484 212.379 118.484 212.379 84.609 210.207 84.609 210.207 98.984 189.473 98.984M237.757 105.312h-13.36l6.705-16.343 6.655 16.343zm.811 2.032l4.578 11.14h2.22l-14.264-35-14.313 35h2.219l4.577-11.14h14.983zM270.468 105.094c0 3.062 0 6.296-1.766 8.531-1.673 2.156-5.031 3.281-7.656 3.281s-5.969-1.125-7.642-3.281c-1.764-2.235-1.764-5.469-1.764-8.531V84.609h-2.188v21.11c0 3.468 0 6.437 2.313 9.265 2.312 2.594 5.842 3.953 9.281 3.953 3.453 0 6.983-1.359 9.281-3.953 2.313-2.828 2.313-5.797 2.313-9.265v-21.11h-2.172v20.485M297.521 88.922c-1.639-2.922-4.889-4.766-8.342-4.766-5.111 0-8.736 3.547-8.736 8.578 0 2.703 1.267 4.672 3.533 6.063l6.156 3.25c2.953 1.437 6.889 3.047 6.889 6.875 0 4.484-3.936 7.984-8.42 7.984-4.125 0-6.797-2.516-8.25-6.109l-1.891.859c1.578 4.359 5.297 7.281 10.047 7.281 5.531 0 10.686-4.234 10.686-9.843 0-3.063-1.311-5.125-3.889-6.735l-6.533-3.375c-2.75-1.297-6.155-2.781-6.155-6.328 0-3.562 2.766-6.484 6.438-6.484 3.217 0 5.389 1.578 6.922 4l1.545-1.25M15.773 44.953L15.773 42.953 2.102 42.953 2.102 76.484 4.258 76.484 4.258 59.14 15.461 59.14 15.461 57.14 4.258 57.14 4.258 44.953 15.773 44.953M27.477 58.609V44.953h1.39c1.985 0 4.281-.094 6.078.75 2.422 1.078 3.594 3.562 3.594 6.047 0 2.015-.766 4.015-2.391 5.297-1.703 1.468-3.812 1.562-5.921 1.562h-2.75zm3.515 2c5.61.094 9.703-2.937 9.703-8.765 0-2.844-.984-5.516-3.422-7.204-2.281-1.64-4.984-1.687-7.718-1.687H25.32v33.531h2.157V60.609h1.078l11.062 15.875h2.469L30.992 60.609zM67.926 63.453H54.66l6.656-16.188 6.61 16.188zm.797 2l4.547 11.031h2.203l-14.157-34.64-14.218 34.64h2.203l4.547-11.031h14.875zM113.229 42.953L111.059 42.953 111.059 72.219 82.605 42.5 82.605 76.484 84.762 76.484 84.762 47.672 113.229 77.593 113.229 42.953M125.934 58.609L125.934 42.953 123.776 42.953 123.776 76.484 125.934 76.484 125.934 61.359 126.84 60.469 143.104 76.484 145.949 76.484 128.324 59.094 144.901 42.953 142.026 42.953 125.934 58.609M166.297 44.953L166.297 42.953 152.625 42.953 152.625 76.484 154.78 76.484 154.78 59.14 165.983 59.14 165.983 57.14 154.78 57.14 154.78 44.953 166.297 44.953M196.391 63.234c0 3.016 0 6.219-1.75 8.453-1.672 2.125-5 3.235-7.594 3.235-2.609 0-5.939-1.11-7.609-3.235-1.75-2.234-1.75-5.437-1.75-8.453V42.953h-2.158v20.906c0 3.422 0 6.36 2.298 9.156 2.28 2.579 5.797 3.907 9.219 3.907 3.406 0 6.922-1.328 9.203-3.907 2.297-2.796 2.297-5.734 2.297-9.156V42.953h-2.156v20.281M210.938 58.609V44.953h1.39c1.985 0 4.28-.094 6.077.75 2.423 1.078 3.595 3.562 3.595 6.047 0 2.015-.767 4.015-2.392 5.297-1.703 1.468-3.811 1.562-5.92 1.562h-2.75zm3.515 2c5.61.094 9.702-2.937 9.702-8.765 0-2.844-.983-5.516-3.422-7.204-2.28-1.64-4.983-1.687-7.717-1.687h-4.236v33.531h2.158V60.609h1.078l11.062 15.875h2.469l-11.094-15.875zM240.64 44.953L249.421 44.953 249.421 42.953 229.719 42.953 229.719 44.953 238.482 44.953 238.482 76.484 240.64 76.484 240.64 44.953M272.769 44.953L272.769 42.953 256.581 42.953 256.581 76.484 272.769 76.484 272.769 74.484 258.736 74.484 258.736 59.14 272.409 59.14 272.409 57.14 258.736 57.14 258.736 44.953 272.769 44.953M284.792 58.609V44.953h1.391c1.984 0 4.281-.094 6.078.75 2.422 1.078 3.593 3.562 3.593 6.047 0 2.015-.765 4.015-2.39 5.297-1.703 1.468-3.814 1.562-5.922 1.562h-2.75zm3.516 2c5.609.094 9.703-2.937 9.703-8.765 0-2.844-.986-5.516-3.422-7.204-2.281-1.64-4.985-1.687-7.719-1.687h-4.234v33.531h2.156V60.609h1.078l11.063 15.875h2.467l-11.092-15.875z" transform="translate(830 254.5)"/>
            </g>
        </g>
    </g>
</svg>
