<?xml version="1.0" encoding="utf-8"?>
<!-- Generator: Adobe Illustrator 25.0.0, SVG Export Plug-In . SVG Version: 6.00 Build 0)  -->
<svg version="1.1" id="Logos" xmlns="http://www.w3.org/2000/svg" xmlns:xlink="http://www.w3.org/1999/xlink" x="0px" y="0px"
	 viewBox="0 0 102 48.2" style="enable-background:new 0 0 102 48.2;" xml:space="preserve">
<style type="text/css">
	.st0{fill:#757C89;}
</style>
<g id="XMLID_5_">
	<g>
		<g>
			<path class="st0" d="M13.2,10.5c0,1.7,0.1,1.8,1.5,2v0.3H9.8v-0.3c1.4-0.2,1.5-0.3,1.5-2V3.7c0-1.7-0.1-1.8-1.5-2V1.5h4.9v0.3
				c-1.4,0.2-1.5,0.3-1.5,2C13.2,3.8,13.2,10.5,13.2,10.5z M16.7,3.8c1.6-1.5,1.9-2,0.5-2.1V1.5h3.7v0.3c-1,0.1-1.4,0.4-3.3,2.1
				l-2.7,2.4L19,11c1,1.1,1.3,1.5,2.2,1.6v0.3h-4.6v-0.3c1.2-0.1,0.9-0.6,0.4-1.2L13.2,7L16.7,3.8z"/>
			<path class="st0" d="M22.6,12.5c1.4-0.2,1.5-0.3,1.5-2V3.7c0-1.7-0.1-1.8-1.5-2V1.5h4.9v0.3C26.1,2,26,2.1,26,3.8v7.8
				c0,0.6,0.1,0.7,0.7,0.7H27c2.8,0,3.6-0.4,4.6-3h0.3l-0.6,3.5c-1.1,0-2.5,0-3.4,0h-5.2v-0.3H22.6z"/>
			<path class="st0" d="M32.5,12.5c1-0.1,1.2-0.4,2.1-2.7L38,1.3c0.3,0,0.7-0.2,0.9-0.5H39l4,10.1c0.5,1.2,0.6,1.5,1.6,1.6v0.3H40
				v-0.3c1.1-0.1,1.4-0.4,1.1-1.2l-0.9-2.2h-4.5l-0.1,0.2c-1.1,2.9-0.9,3.1,0.5,3.2v0.3h-3.5L32.5,12.5L32.5,12.5z M35.9,8.3h3.9
				l-1.9-5L35.9,8.3z"/>
			<path class="st0" d="M46,12.1V8.3h0.3c0.4,3.5,1.8,4.1,3.3,4.1c1.3,0,2.6-0.7,2.6-2.2c0-1.1-1-1.7-2.2-2.3l-1.3-0.6
				C47,6.6,46,5.5,46,4c0-1.7,1.7-3,3.8-3c1.1,0,2.4,0.3,3.2,0.7V5h-0.3c-0.4-2.7-1.5-3.4-3-3.4c-1.3,0-2.3,0.7-2.3,1.8
				c0,1.2,0.9,1.7,1.7,2.1l1.3,0.6c1.8,0.8,3.2,1.6,3.2,3.4c0,2.2-2,3.4-4.1,3.4C48.2,13,46.8,12.6,46,12.1z"/>
			<path class="st0" d="M56.5,12.1V8.3h0.3c0.4,3.5,1.8,4.1,3.3,4.1c1.3,0,2.6-0.7,2.6-2.2c0-1.1-1-1.7-2.2-2.3l-1.3-0.6
				c-1.7-0.7-2.7-1.8-2.7-3.3c0-1.7,1.7-3,3.8-3c1.1,0,2.4,0.3,3.2,0.7V5h-0.3c-0.4-2.7-1.5-3.4-3-3.4c-1.3,0-2.3,0.7-2.3,1.8
				c0,1.2,0.9,1.7,1.7,2.1l1.3,0.6c1.8,0.8,3.2,1.6,3.2,3.4c0,2.2-2,3.4-4.1,3.4C58.7,13,57.3,12.6,56.5,12.1z"/>
			<path class="st0" d="M69.7,10.5c0,1.7,0.1,1.8,1.5,2v0.3h-4.9v-0.3c1.4-0.2,1.5-0.3,1.5-2V3.7c0-1.7-0.1-1.8-1.5-2V1.5h4.9v0.3
				c-1.4,0.2-1.5,0.3-1.5,2V10.5z"/>
			<path class="st0" d="M76.4,10.5c0,1.7,0.1,1.8,1.5,2v0.3H73v-0.3c1.4-0.2,1.5-0.3,1.5-2V3.7c0-1.7-0.1-1.8-1.5-2V1.5h4.9v0.3
				c-1.4,0.2-1.5,0.3-1.5,2V10.5z M79.9,3.8c1.6-1.5,1.9-2,0.5-2.1V1.5h3.7v0.3c-1,0.1-1.4,0.4-3.3,2.1l-2.7,2.4l4.1,4.7
				c1,1.1,1.3,1.5,2.2,1.6v0.3h-4.6v-0.3c1.2-0.1,0.9-0.6,0.4-1.2L76.4,7L79.9,3.8z"/>
		</g>
		<g>
			<path class="st0" d="M10.2,29.1v-3.8h0.3c0.4,3.5,1.8,4.1,3.3,4.1c1.3,0,2.6-0.7,2.6-2.2c0-1.1-1-1.7-2.2-2.3L13,24.4
				c-1.7-0.7-2.7-1.8-2.7-3.3c0-1.7,1.7-3,3.8-3c1.1,0,2.4,0.3,3.2,0.7v3.3H17c-0.4-2.7-1.5-3.4-3-3.4c-1.3,0-2.3,0.7-2.3,1.8
				c0,1.2,0.9,1.7,1.7,2.1l1.3,0.6c1.8,0.8,3.2,1.6,3.2,3.4c0,2.2-2,3.4-4.1,3.4C12.4,30,11.1,29.6,10.2,29.1z"/>
			<path class="st0" d="M22.6,29.5c1.6-0.1,1.7-0.4,1.7-2V19h-0.5c-2.3,0-3.1,0.5-3.9,3.1h-0.3l0.5-3.6c1.2,0,2.5,0,3.5,0h3.3
				c1,0,2.3,0,3.5,0l0.5,3.6h-0.3C29.7,19.5,29,19,26.7,19h-0.5v8.5c0,1.6,0.2,1.8,1.7,2v0.3h-5.3C22.6,29.8,22.6,29.5,22.6,29.5z"
				/>
			<path class="st0" d="M35.9,27.5c0,1.7,0.1,1.8,1.5,2v0.3h-4.9v-0.3c1.4-0.2,1.5-0.3,1.5-2v-6.8c0-1.7-0.1-1.8-1.5-2v-0.3h4.9v0.3
				c-1.4,0.2-1.5,0.3-1.5,2V27.5z"/>
			<path class="st0" d="M39.2,29.5c1.4-0.2,1.5-0.3,1.5-2v-6.8c0-1.7-0.1-1.8-1.5-2v-0.3h5.9c1,0,2.3,0,3.5,0l0.4,3.5h-0.3
				c-0.9-2.7-2-2.9-4.9-2.9h-1.2v4.6h2.1c0.9,0,1.5-0.4,1.6-1.7h0.3V26h-0.3c-0.2-1.3-0.7-1.7-1.6-1.7h-2.1v3.2c0,1.5,0,1.8,1.7,2
				v0.3h-5.1C39.2,29.8,39.2,29.5,39.2,29.5z"/>
			<path class="st0" d="M53.4,29.5c1.6-0.1,1.7-0.4,1.7-2V19h-0.5c-2.3,0-3.1,0.5-3.9,3.1h-0.3l0.5-3.6c1.2,0,2.5,0,3.5,0h3.3
				c1,0,2.3,0,3.5,0l0.5,3.6h-0.3c-0.9-2.6-1.6-3.1-3.9-3.1H57v8.5c0,1.6,0.2,1.8,1.7,2v0.3h-5.3V29.5z"/>
			<path class="st0" d="M62.9,18.7v-0.3h4.9v0.3c-1.4,0.2-1.5,0.3-1.5,2v4.6c0,2.4,0.9,3.9,2.9,3.9c2.4,0,3.1-1.8,3.1-4.1v-4.4
				c0-1.7-0.2-1.8-1.5-2v-0.3h3.8v0.3c-1.4,0.2-1.5,0.3-1.5,2v4.4c0,3.3-1.4,4.9-4.3,4.9c-3.2,0-4.3-1.8-4.3-4.5v-4.8
				C64.5,19,64.3,18.9,62.9,18.7z"/>
			<path class="st0" d="M84,18.7v-0.3h3.8v0.3c-1.4,0.2-1.5,0.3-1.5,2v9.2h-0.8l-7.1-9v6.6c0,1.7,0.2,1.8,1.5,2v0.3h-3.8v-0.3
				c1.4-0.2,1.5-0.3,1.5-2V20l-0.1-0.1c-0.5-0.7-0.8-1-1.3-1.2v-0.2h2.5l6.8,8.6v-6.3C85.5,19,85.4,18.9,84,18.7z"/>
			<path class="st0" d="M101,24.5v0.3c-0.9,0.1-1,0.4-1,2v1.9c-1.3,0.9-3.4,1.3-4.7,1.3c-3.9,0-5.9-2.7-5.9-5.9c0-3.6,2.7-6,6.2-6
				c1.5,0,2.8,0.3,3.6,0.6l0.3,3.5h-0.3c-0.6-2.5-1.9-3.5-3.8-3.5s-4,1.4-4,5.4c0,3.2,1.6,5.2,4,5.2c1,0,2.7-0.1,2.7-1.5v-1.1
				c0-1.6,0-1.9-1.4-2v-0.3h4.3V24.5z"/>
		</g>
		<g>
			<path class="st0" d="M25.7,35.7c-1.1,0.1-1.4,0.3-2.1,2.7L21.1,47h-0.8l-2.7-8l-2.4,8h-0.9L11,37.3c-0.4-1.2-0.6-1.4-1.6-1.5
				v-0.3H14v0.3c-1.1,0.1-1.4,0.4-1.1,1.2l2.3,7.1l1.9-6.5l-0.7-2.1h2l2.8,8.6l1.5-5.3c0.8-2.8,0.8-2.9-0.5-3v-0.3h3.6L25.7,35.7
				L25.7,35.7z"/>
			<path class="st0" d="M32.8,46.8H27v-0.3c1.4-0.2,1.5-0.3,1.5-2v-6.8c0-1.7-0.1-1.8-1.5-2v-0.3h5.5c1,0,2.3,0,3.5,0l0.4,3.5h-0.3
				c-0.9-2.7-2-2.9-4.9-2.9h-0.9v4.6h2.1c0.9,0,1.5-0.4,1.6-1.7h0.3V43H34c-0.2-1.3-0.7-1.7-1.6-1.7h-2.1v4.2c0,0.6,0.1,0.7,0.7,0.7
				h0.3c2.9,0,4.2-0.4,5.1-2.9h0.3l-0.6,3.5C35.2,46.8,33.8,46.8,32.8,46.8z"/>
			<path class="st0" d="M42.2,44.5c0,1.7,0.1,1.8,1.5,2v0.3h-4.9v-0.3c1.4-0.2,1.5-0.3,1.5-2v-6.8c0-1.7-0.1-1.8-1.5-2v-0.3h4.9v0.3
				c-1.4,0.2-1.5,0.3-1.5,2V44.5z"/>
			<path class="st0" d="M59.5,35.7c-1.4,0.2-1.5,0.3-1.5,2v6.8c0,1.7,0.1,1.8,1.5,2v0.3h-4.9v-0.3c1.4-0.2,1.5-0.3,1.5-2V37
				l-3.9,9.4H52l-4.1-9.6v7.8c0,1.7,0.1,1.8,1.5,2v0.3h-3.8v-0.3c1.4-0.2,1.5-0.3,1.5-2v-6.8c0-1.7-0.1-1.8-1.5-2v-0.3h3.8l3.3,7.9
				l3.2-7.9h3.6V35.7z"/>
			<path class="st0" d="M60.8,46.5c1-0.1,1.2-0.4,2.1-2.7l3.4-8.5c0.3,0,0.7-0.2,0.9-0.5h0.1l4,10.1c0.5,1.2,0.6,1.5,1.6,1.6v0.3
				h-4.6v-0.3c1.1-0.1,1.4-0.4,1.1-1.2l-0.9-2.2H64l-0.1,0.2c-1.1,2.9-0.9,3.1,0.5,3.2v0.3h-3.5v-0.3H60.8z M64.3,42.3h3.9l-1.9-5
				L64.3,42.3z"/>
			<path class="st0" d="M74.2,46.5c1.4-0.2,1.5-0.3,1.5-2v-6.8c0-1.7-0.1-1.8-1.5-2v-0.3h1.9c0.9,0,2.2,0,2.9,0c2.7,0,4.9,0.6,4.9,3
				c0,1.7-1.2,2.5-2.9,2.8l2.3,3.6c0.7,1.1,1.2,1.5,2.1,1.6v0.3h-3.2c-0.2-0.5-0.8-1.5-1.3-2.2l-0.8-1.3c-0.6-0.9-0.9-1.5-1.2-1.9
				h-1.4v3.1c0,1.7,0.1,1.8,1.6,2v0.3h-4.9V46.5z M78.8,36h-1.3v4.8h1.3c1.9,0,3-0.4,3-2.4C81.8,36.4,80.7,36,78.8,36z"/>
		</g>
	</g>
</g>
<g>
	<g>
		<g>
			<rect class="st0" width="1.4" height="48.2"/>
		</g>
	</g>
</g>
</svg>
