<svg xmlns="http://www.w3.org/2000/svg" xmlns:xlink="http://www.w3.org/1999/xlink" width="505" height="171" viewBox="0 0 505 171">
    <defs>
        <path id="iydrtqvkoa" d="M0.781 0.877L13.233 0.877 13.233 4.475 0.781 4.475z"/>
    </defs>
    <g fill="none" fill-rule="evenodd">
        <g>
            <g>
                <path fill="#757c89" d="M224.658 46.751L233.307 46.751 233.307 27.869 224.658 27.869zM269.721 46.76L278.379 46.76 278.379 27.878 269.721 27.878zM269.73 67.802L278.384 67.802 278.384 48.919 269.73 48.919zM239.157 46.751L250.407 46.751 250.407 27.869 239.157 27.869zM239.166 67.793L250.411 67.793 250.411 48.91 239.166 48.91zM252.585 46.76L263.835 46.76 263.835 27.878 252.585 27.878zM252.594 67.802L263.844 67.802 263.844 48.919 252.594 48.919zM268.466 21.794L278.375 21.794 278.375 19.62 268.466 19.62zM224.658 21.802L225.887 21.802 225.887 2.322 224.658 2.322z" transform="translate(-165 -658) translate(165 658)"/>
                <path fill="#757c89" d="M277.146 21.807L278.375 21.807 278.375 2.326 277.146 2.326zM224.658 3.55L246.24 3.55 246.24 2.322 224.658 2.322z" transform="translate(-165 -658) translate(165 658)"/>
                <path fill="#757c89" d="M256.797 3.55L278.379 3.55 278.379 2.322 256.797 2.322z" transform="translate(-165 -658) translate(165 658)"/>
                <g transform="translate(-165 -658) translate(165 658) translate(244.5)">
                    <mask id="5o44sqq33b" fill="#fff">
                        <use xlink:href="#iydrtqvkoa"/>
                    </mask>
                    <use fill="#757c89" xlink:href="#iydrtqvkoa"/>
                    <path fill="#757c89" d="M.781 2.952s2.107-1.454 6.22-1.454c4.103 0 6.232 1.454 6.232 1.454" mask="url(#5o44sqq33b)"/>
                </g>
                <path fill="#757c89" d="M224.658 72.747L278.375 72.747 278.375 70.587 224.658 70.587z" transform="translate(-165 -658) translate(165 658)"/>
                <path fill="#757c89" d="M277.132 76.135L278.37 76.135 278.37 70.587 277.132 70.587z" transform="translate(-165 -658) translate(165 658)"/>
                <path fill="#757c89" d="M224.658 76.131L278.375 76.131 278.375 74.903 224.658 74.903z" transform="translate(-165 -658) translate(165 658)"/>
                <path fill="#757c89" d="M224.658 76.135L225.887 76.135 225.887 70.587 224.658 70.587zM239.175 25.695h11.232V14.463c-5.958.531-10.701 5.274-11.232 11.232M252.585 14.463v11.232h11.273c-.531-5.971-5.297-10.723-11.273-11.232M224.662 67.793L233.311 67.793 233.311 48.91 224.662 48.91zM257.216 3.087l-2.817 12.384m-5.783.014L245.803 3.1M224.658 21.802L234.567 21.802 234.567 19.629 224.658 19.629z" transform="translate(-165 -658) translate(165 658)"/>
                <path fill="#757c89" d="M247.986 9.882l-.481-2.124c-7.196 1.507-12.929 6.988-14.801 14.044h2.272c1.81-6.007 6.8-10.633 13.01-11.92M255.51 7.753l-.49 2.129c6.214 1.287 11.2 5.913 13.009 11.92h2.3c-1.877-7.06-7.61-12.545-14.819-14.049M308.606 155.939c0 .562-.036 1.17-.203 1.768-.599 2.331-1.796 2.772-2.759 2.772-1.88 0-3.447-2.25-3.447-7.191 0-4.298 1.207-7.308 3.447-7.308 1.76 0 2.484 1.611 2.804 2.939.122.4.158.922.158 1.399v5.62zm3.041-6.26c0-3.01.113-4.73.158-6.048h-2.718l-.157 2.155h-.082c-.603-1.084-1.561-2.439-3.608-2.439-2.885 0-6.116 2.921-6.116 10.067 0 5.697 2.236 9.58 5.674 9.58 1.647 0 3.087-.841 3.731-2.357h.077v1.957c0 4.374-1.522 5.886-3.965 5.886-1.562 0-2.84-.432-3.605-.832l-.72 2.394c1.004.553 2.602.958 4.249.958 2.195 0 4.005-.76 5.156-2.038 1.283-1.431 1.926-3.34 1.926-8.402v-10.881zm-17.693-13.059c-.995 0-1.796.805-1.796 2.002 0 1.197.76 2.003 1.755 2.003 1.166 0 1.881-.805 1.881-2.002 0-1.197-.715-2.003-1.84-2.003zm-1.476 26.374h3.077v-19.363h-3.077v19.363zm-14.166 0h11.042v-2.56h-7.564v-.077c.441-.881 1.003-1.921 1.561-2.884l6.044-11.813v-2.029h-10.323v2.552h6.876v.085c-.396.833-1.04 1.881-1.521 2.84l-6.115 12.01v1.876zm-11.214-12.042c0-.522.04-1.043.125-1.484.154-1.764 1.436-3.488 2.844-3.488 2.476 0 3.443 3.366 3.443 7.371 0 3.879-.841 7.407-3.411 7.407-.832 0-2.241-.486-2.84-3.24-.121-.486-.161-1.048-.161-1.607v-4.959zm-3.034 19.728h3.034v-9.603h.085c.517 1.076 1.562 2.237 3.402 2.237 3.047 0 6.003-2.835 6.003-10.04 0-6.371-2.2-9.927-5.603-9.927-1.52 0-3.046.72-4.122 2.759h-.085l-.158-2.475h-2.718c.036 1.355.163 3.073.163 6.039v21.01zm-5.971-34.06c-.995 0-1.791.805-1.791 2.002 0 1.197.756 2.003 1.755 2.003 1.156 0 1.881-.805 1.881-2.002 0-1.197-.724-2.003-1.845-2.003zm-1.476 26.374h3.078v-19.363h-3.078v19.363zm-12.447-11.681c.122-2.642 1.12-5.567 3.163-5.567 1.477 0 2.925 1.724 2.885 5.566h-6.048zm8.924 2.276c.036-.481.08-1.003.08-1.759 0-4.325-1.597-8.483-5.521-8.483-3.883 0-6.561 3.92-6.561 10.157 0 5.936 2.398 9.729 7.042 9.729 1.562 0 3.205-.36 4.28-.923l-.517-2.236c-.761.405-1.841.72-3.2.72-2.205 0-4.572-1.238-4.572-7.205h8.969zm-24.13 9.405h10.643v-2.596h-7.569v-24.372h-3.074v26.968zm-11.088-19.363h-3.082v12.767c0 .634-.036 1.237-.157 1.759-.158.882-.959 2.56-2.768 2.56-2.12 0-2.601-2.24-2.601-5.282V143.63h-3.073v12.244c0 4.802 1.359 7.439 4.716 7.439 2.083 0 3.568-1.4 4.126-2.353h.081l.234 2.033h2.682c-.04-1.44-.157-3.154-.157-5.278v-14.085zm-25.771 19.363h11.043v-2.56h-7.56v-.077c.432-.881.999-1.921 1.557-2.884l6.043-11.813v-2.029h-10.322v2.552h6.88v.085c-.4.833-1.04 1.881-1.521 2.84l-6.12 12.01v1.876zM492.305 122.495h3.077v-12.169c0-.679.041-1.282.158-1.759.36-2.038 1.606-3.123 2.889-3.123 2.241 0 2.678 2.281 2.678 4.599v12.451h3.082V109.49c0-4.685-1.998-6.642-4.685-6.642-2.038 0-3.604 1.08-4.441 2.632h-.077l-.166-2.354h-2.673c.036 1.562.158 2.718.158 5v14.368zm-12.447-11.687c.116-2.637 1.12-5.562 3.163-5.562 1.48 0 2.92 1.724 2.885 5.562h-6.048zm8.923 2.277c.036-.477.081-.994.081-1.75 0-4.325-1.602-8.487-5.522-8.487-3.883 0-6.565 3.919-6.565 10.156 0 5.935 2.399 9.729 7.047 9.729 1.557 0 3.2-.36 4.28-.922l-.518-2.233c-.76.397-1.845.716-3.2.716-2.209 0-4.567-1.242-4.567-7.209h8.964zm-20.452-13.239v3.28h-2.354v2.318h2.353v11.25c0 2.682.36 4 1.162 4.882.72.842 1.795 1.157 3.041 1.157 1 0 1.724-.121 2.282-.315l-.157-2.358c-.325.081-.73.117-1.247.117-1.116 0-1.998-.68-1.998-3.2v-11.533h3.721v-2.318h-3.721V98.61l-3.082 1.237zm-6.409 22.648v-17.05h3.529v-2.318h-3.529v-1.237c0-2.484.527-4.851 2.727-4.851.802 0 1.324.162 1.724.324l.473-2.398c-.554-.284-1.36-.477-2.399-.477-1.197 0-2.758.395-3.879 1.633-1.395 1.602-1.714 3.726-1.714 5.846v1.16h-2.444v2.318h2.443v17.05h3.07zm-11.196-6.124c0 .36-.044.765-.116 1.12-.365 1.922-1.486 2.93-2.853 2.93-1.076 0-2.358-.882-2.358-3.451 0-4.199 3.726-4.518 5.327-4.518v3.919zm2.998-6.678c0-4.324-1.638-6.844-5.522-6.844-1.921 0-3.681.679-4.522 1.278l.675 2.155c.922-.635 2.002-.995 3.208-.995 2.399 0 3.083 1.76 3.083 4.361v.607c-4.365.041-8.245 2.156-8.245 7.038 0 3.367 1.998 5.522 4.555 5.522 1.687 0 3.05-.877 3.892-2.353h.117l.202 2.034h2.759c-.166-1.238-.202-2.916-.202-4.401v-8.402zm-26.528 12.803h3.069v-12.529c0-.476.045-1.039.126-1.444.481-2.038 1.561-3.078 3.006-3.078 2.079 0 2.601 2.205 2.601 4.563v12.487h3.074v-12.847c0-4.878-2.075-6.8-4.519-6.8-1.08 0-1.885.244-2.565.68-.638.441-1.237 1.04-1.637 1.719h-.086V94.802h-3.069v27.692zm-3.209-2.836c-.684.36-1.404.518-2.204.518-2.84 0-4.559-2.723-4.559-7.245 0-3.803 1.359-7.488 4.482-7.488 1.003 0 1.8.32 2.196.522l.608-2.515c-.563-.325-1.688-.603-2.727-.603-4.843 0-7.637 4.513-7.637 10.084 0 6.403 2.84 9.801 7.074 9.801 1.363 0 2.524-.315 3.204-.72l-.437-2.354zm-21.964 1.953c.832.684 2.394 1.121 3.798 1.121 3.204 0 5.837-1.881 5.837-5.755 0-2.687-1.755-4.447-3.997-5.886-1.925-1.323-2.402-2.048-2.402-3.326 0-1.282.837-2.48 2.479-2.48 1.048 0 1.845.36 2.601.882l.801-2.322c-.801-.477-1.921-.999-3.438-.999-3.001 0-5.323 2.201-5.323 5.36 0 2.205 1.358 3.884 3.883 5.486 1.962 1.323 2.48 2.317 2.48 3.797 0 1.729-1.125 2.804-2.849 2.804-1.233 0-2.435-.558-3.114-.995l-.756 2.313zm-15.053.883h3.078v-12.169c0-.679.041-1.282.163-1.759.355-2.038 1.601-3.123 2.884-3.123 2.241 0 2.682 2.281 2.682 4.599v12.451h3.078V109.49c0-4.685-2.002-6.642-4.68-6.642-2.043 0-3.609 1.08-4.45 2.632h-.077l-.158-2.354h-2.677c.04 1.562.158 2.718.158 5v14.368zm-12.451-11.687c.122-2.637 1.125-5.562 3.168-5.562 1.48 0 2.92 1.724 2.885 5.562h-6.053zm8.928 2.277c.04-.477.077-.994.077-1.75 0-4.325-1.598-8.487-5.517-8.487-3.884 0-6.566 3.919-6.566 10.156 0 5.935 2.398 9.729 7.042 9.729 1.562 0 3.204-.36 4.284-.922l-.526-2.233c-.756.397-1.836.716-3.2.716-2.195 0-4.558-1.242-4.558-7.209h8.964zm-24.093 8.528c.837.683 2.403 1.12 3.798 1.12 3.209 0 5.846-1.881 5.846-5.755 0-2.687-1.76-4.447-4.001-5.886-1.921-1.323-2.408-2.048-2.408-3.326 0-1.282.846-2.48 2.489-2.48 1.044 0 1.845.36 2.601.882l.801-2.322c-.801-.477-1.917-.999-3.447-.999-2.997 0-5.319 2.201-5.319 5.36 0 2.205 1.363 3.884 3.884 5.486 1.962 1.323 2.483 2.317 2.483 3.797 0 1.729-1.12 2.804-2.844 2.804-1.246 0-2.439-.558-3.118-.995l-.765 2.313zm-11.682 0c.837.683 2.394 1.12 3.798 1.12 3.2 0 5.837-1.881 5.837-5.755 0-2.687-1.751-4.447-3.992-5.886-1.93-1.323-2.407-2.048-2.407-3.326 0-1.282.837-2.48 2.479-2.48 1.048 0 1.845.36 2.601.882l.801-2.322c-.801-.477-1.917-.999-3.438-.999-3.006 0-5.319 2.201-5.319 5.36 0 2.205 1.359 3.884 3.879 5.486 1.962 1.323 2.484 2.317 2.484 3.797 0 1.729-1.12 2.804-2.844 2.804-1.242 0-2.443-.558-3.118-.995l-.761 2.313zm-4.725-25.493c-1.003 0-1.8.801-1.8 2.002 0 1.198.76 1.999 1.755 1.999 1.161 0 1.881-.801 1.881-1.998 0-1.202-.72-2.003-1.836-2.003zm-1.48 26.374h3.078v-19.368h-3.079v19.368zm-18.572 0l2.642-13.004c.638-3.006 1.12-5.922 1.475-8.974h.082c.364 2.97.841 6.012 1.404 8.856l2.555 13.123h3.043l5.247-26.969h-3.047l-2.236 12.839c-.478 3.087-.964 6.011-1.4 9.895h-.126c-.36-3.771-.954-6.849-1.553-10.053l-2.529-12.681h-2.6l-2.48 12.96c-.675 3.447-1.274 6.363-1.634 9.774h-.121c-.36-3.33-.76-6.327-1.363-9.729l-2.278-13.005h-3.163l5.157 26.969h2.925zm-21.811 0h3.077v-10.728c0-.643.041-1.237.122-1.759.315-2.205 1.76-4 3.717-4h.644v-3.119c-.203-.04-.397-.04-.644-.04-1.8 0-3.438 1.516-4.077 3.356h-.081l-.157-3.078h-2.759c.04 1.44.158 3.367.158 5v14.368zm-12.416-11.686c.126-2.637 1.125-5.562 3.173-5.562 1.48 0 2.916 1.724 2.88 5.562h-6.053zm8.933 2.277c.04-.477.08-.994.08-1.75 0-4.325-1.606-8.487-5.521-8.487-3.888 0-6.561 3.919-6.561 10.156 0 5.935 2.399 9.729 7.038 9.729 1.566 0 3.2-.36 4.28-.922l-.518-2.233c-.756.397-1.836.716-3.2.716-2.204 0-4.563-1.242-4.563-7.209h8.964zm-18.613 2.565c0 .486-.036.922-.112 1.282-.689 2.804-2.007 3.326-2.97 3.326-2.241 0-3.28-3.28-3.28-7.367 0-3.847.877-7.411 3.446-7.411 1.481 0 2.678 1.724 2.88 3.771.036.396.036.877.036 1.278v5.121zm0-20.849v10.319h-.076c-.765-1.633-2.12-2.273-3.564-2.273-2.961 0-5.805 3.196-5.805 10.044 0 6.408 2.363 9.923 5.607 9.923 2.079 0 3.442-1.354 4.086-2.713h.113l.202 2.394h2.637c-.036-1.121-.157-3.326-.157-4.645V94.802h-3.043zm-27.458 16.007c.126-2.637 1.12-5.562 3.168-5.562 1.484 0 2.924 1.724 2.88 5.562h-6.049zm8.932 2.277c.036-.477.072-.994.072-1.75 0-4.325-1.593-8.487-5.512-8.487-3.889 0-6.57 3.919-6.57 10.156 0 5.935 2.403 9.729 7.042 9.729 1.566 0 3.208-.36 4.289-.922l-.527-2.233c-.756.397-1.836.716-3.2.716-2.204 0-4.562-1.242-4.562-7.209h8.968zM243.333 96.12c-1.004 0-1.8.801-1.8 2.002 0 1.198.76 1.999 1.755 1.999 1.161 0 1.876-.801 1.876-1.998 0-1.202-.715-2.003-1.831-2.003zm-1.48 26.374h3.077v-19.368h-3.078v19.368zm-24.935 0h3.033V110.21c0-.608.045-1.166.126-1.643.36-2.083 1.602-3.163 2.885-3.163 2.317 0 2.681 2.281 2.681 4.4v12.69h3.038v-12.451c0-.635.04-1.238.121-1.715.437-1.844 1.562-2.925 2.845-2.925 2.358 0 2.718 2.444 2.718 4.96v12.132h3.041v-12.812c0-4.959-2.038-6.836-4.639-6.836-1.008 0-1.922.244-2.691.757-.715.445-1.395 1.242-1.917 2.2h-.076c-.72-2.115-2.242-2.957-4.041-2.957-2.043 0-3.524 1.121-4.365 2.678h-.082l-.157-2.399h-2.682c.04 1.562.162 2.723.162 5v14.368zm-12.456-11.686c.126-2.637 1.125-5.562 3.168-5.562 1.485 0 2.925 1.724 2.885 5.562h-6.053zm8.924 2.277c.044-.477.085-.994.085-1.75 0-4.325-1.602-8.487-5.522-8.487-3.883 0-6.565 3.919-6.565 10.156 0 5.935 2.403 9.729 7.047 9.729 1.561 0 3.204-.36 4.284-.922l-.522-2.233c-.76.397-1.836.716-3.2.716-2.204 0-4.567-1.242-4.567-7.209h8.96zm-18.599 2.565c0 .486-.04.922-.121 1.282-.684 2.804-2.007 3.326-2.966 3.326-2.241 0-3.28-3.28-3.28-7.367 0-3.847.877-7.411 3.442-7.411 1.485 0 2.682 1.724 2.885 3.771.04.396.04.877.04 1.278v5.121zm0-20.849v10.319h-.081c-.76-1.633-2.124-2.273-3.564-2.273-2.965 0-5.8 3.196-5.8 10.044 0 6.408 2.353 9.923 5.597 9.923 2.084 0 3.448-1.354 4.087-2.713h.121l.198 2.394h2.637c-.036-1.121-.162-3.326-.162-4.645V94.802h-3.033zm-16.092 21.569c0 .36-.036.765-.117 1.12-.364 1.922-1.485 2.93-2.844 2.93-1.085 0-2.367-.882-2.367-3.451 0-4.199 3.726-4.518 5.328-4.518v3.919zm2.997-6.678c0-4.324-1.638-6.844-5.522-6.844-1.921 0-3.68.679-4.517 1.278l.674 2.155c.923-.635 2.003-.995 3.204-.995 2.404 0 3.083 1.76 3.083 4.361v.607c-4.365.041-8.244 2.156-8.244 7.038 0 3.367 1.998 5.522 4.559 5.522 1.687 0 3.046-.877 3.887-2.353h.122l.198 2.034h2.758c-.162-1.238-.202-2.916-.202-4.401v-8.402zm-21.69-14.89h-3.038v27.692h3.038v-7.321l1.12-1.8 4.203 9.121h3.443l-5.602-11.204 5.12-8.164h-3.32l-3.844 6.845c-.36.635-.679 1.4-1.039 2.155h-.081V94.801zm-16.484 17.131l1.4-6.845c.396-1.804.796-4.126 1.12-6.169h.117c.32 2.007.68 4.248 1.08 6.17l1.4 6.844h-5.117zm5.558 2.48l1.764 8.082h3.037l-6.002-26.969h-3.398l-6.165 26.969h3.001l1.76-8.083h6.003zm-28.336-3.605c.121-2.637 1.125-5.562 3.163-5.562 1.485 0 2.925 1.724 2.884 5.562h-6.047zm8.923 2.277c.04-.477.081-.994.081-1.75 0-4.325-1.597-8.487-5.522-8.487-3.883 0-6.56 3.919-6.56 10.156 0 5.935 2.398 9.729 7.042 9.729 1.566 0 3.204-.36 4.284-.922l-.522-2.233c-.76.397-1.836.716-3.2.716-2.205 0-4.567-1.242-4.567-7.209h8.964zm-27.45 9.41h3.078v-12.529c0-.476.04-1.039.121-1.444.482-2.038 1.562-3.078 3.002-3.078 2.084 0 2.605 2.205 2.605 4.563v12.487h3.078v-12.847c0-4.878-2.078-6.8-4.517-6.8-1.085 0-1.886.244-2.566.68-.638.441-1.242 1.04-1.642 1.719h-.081V94.802h-3.078v27.692zm-3.204-2.836c-.68.36-1.404.518-2.2.518-2.844 0-4.568-2.723-4.568-7.245 0-3.803 1.364-7.488 4.487-7.488.999 0 1.8.32 2.2.522l.603-2.515c-.563-.325-1.683-.603-2.723-.603-4.842 0-7.64 4.513-7.64 10.084 0 6.403 2.834 9.801 7.078 9.801 1.359 0 2.52-.315 3.204-.72l-.441-2.354zm-21.969 1.953c.841.684 2.398 1.121 3.798 1.121 3.209 0 5.846-1.881 5.846-5.755 0-2.687-1.76-4.447-4.001-5.886-1.926-1.323-2.403-2.048-2.403-3.326 0-1.282.841-2.48 2.484-2.48 1.04 0 1.84.36 2.601.882l.797-2.322c-.797-.477-1.918-.999-3.439-.999-3.005 0-5.323 2.201-5.323 5.36 0 2.205 1.359 3.884 3.879 5.486 1.967 1.323 2.484 2.317 2.484 3.797 0 1.729-1.12 2.804-2.844 2.804-1.242 0-2.439-.558-3.118-.995l-.761 2.313zM72.315 96.12c-.999 0-1.796.801-1.796 2.002 0 1.198.756 1.999 1.755 1.999 1.162 0 1.882-.801 1.882-1.998 0-1.202-.72-2.003-1.841-2.003zm-1.476 26.374h3.078v-19.368h-3.078v19.368zm-12.969-.882c.842.684 2.399 1.121 3.798 1.121 3.208 0 5.841-1.881 5.841-5.755 0-2.687-1.755-4.447-3.996-5.886-1.921-1.323-2.403-2.048-2.403-3.326 0-1.282.842-2.48 2.484-2.48 1.04 0 1.84.36 2.596.882l.802-2.322c-.802-.477-1.918-.999-3.439-.999-3.001 0-5.323 2.201-5.323 5.36 0 2.205 1.359 3.884 3.879 5.486 1.967 1.323 2.484 2.317 2.484 3.797 0 1.729-1.12 2.804-2.844 2.804-1.242 0-2.439-.558-3.119-.995l-.76 2.313zm-15.048.883H45.9v-12.529c0-.476.04-1.039.122-1.444.477-2.038 1.561-3.078 3.001-3.078 2.083 0 2.605 2.205 2.605 4.563v12.487h3.078v-12.847c0-4.878-2.079-6.8-4.522-6.8-1.08 0-1.881.244-2.56.68-.644.441-1.242 1.04-1.643 1.719H45.9V94.802h-3.078v27.692zm-3.204-2.836c-.684.36-1.4.518-2.205.518-2.84 0-4.558-2.723-4.558-7.245 0-3.803 1.359-7.488 4.482-7.488.998 0 1.8.32 2.2.522l.599-2.515c-.559-.325-1.679-.603-2.723-.603-4.837 0-7.636 4.513-7.636 10.084 0 6.403 2.839 9.801 7.078 9.801 1.364 0 2.52-.315 3.2-.72l-.437-2.354zM24.169 99.841c1 0 1.72-.76 1.72-1.759 0-1.04-.761-1.795-1.679-1.795-.999 0-1.8.755-1.8 1.795 0 .999.801 1.76 1.76 1.76zm-6.241 0c.999 0 1.719-.76 1.719-1.759 0-1.04-.76-1.795-1.678-1.795-1 0-1.8.755-1.8 1.795 0 .999.8 1.76 1.759 1.76zm5.206 16.529c0 .36-.04.765-.121 1.12-.36 1.922-1.48 2.93-2.844 2.93-1.085 0-2.363-.882-2.363-3.451 0-4.199 3.726-4.518 5.328-4.518v3.919zm2.997-6.678c0-4.324-1.642-6.844-5.521-6.844-1.926 0-3.686.679-4.523 1.278l.68 2.155c.918-.635 1.998-.995 3.2-.995 2.407 0 3.087 1.76 3.087 4.361v.607c-4.37.041-8.244 2.156-8.244 7.038 0 3.367 1.993 5.522 4.558 5.522 1.683 0 3.042-.877 3.884-2.353h.121l.198 2.034h2.758c-.162-1.238-.198-2.916-.198-4.401v-8.402zM0 121.577c.76.558 2.678 1.156 4.518 1.156 4.324 0 7.564-2.916 7.564-7.56 0-3.002-1.44-5.481-4.68-7.767-2.564-1.845-3.964-2.88-3.964-5.562 0-1.84 1.242-3.843 3.924-3.843 1.404 0 2.52.441 3.204.918l.715-2.632c-.639-.482-2.079-1.004-3.757-1.004-4.288 0-7.123 2.997-7.123 7.079 0 3.487 2.915 6.003 5.08 7.488 2.12 1.602 3.564 3.123 3.564 5.607 0 2.722-1.683 4.563-4.527 4.563-1.323 0-2.956-.482-3.838-1.08L0 121.575z" transform="translate(-165 -658) translate(165 658)"/>
            </g>
        </g>
    </g>
</svg>
