<?xml version="1.0" encoding="UTF-8" standalone="no"?>
<!-- Created with Inkscape (http://www.inkscape.org/) -->

<svg style="background-color: transparent;"
   xmlns:dc="http://purl.org/dc/elements/1.1/"
   xmlns:cc="http://creativecommons.org/ns#"
   xmlns:rdf="http://www.w3.org/1999/02/22-rdf-syntax-ns#"
   xmlns:svg="http://www.w3.org/2000/svg"
   xmlns="http://www.w3.org/2000/svg"
   xmlns:sodipodi="http://sodipodi.sourceforge.net/DTD/sodipodi-0.dtd"
   xmlns:inkscape="http://www.inkscape.org/namespaces/inkscape"
   width="63.169075"
   height="94.724335"
   viewBox="0 0 16.713485 25.062481"
   version="1.1"
   id="svg5331"
   inkscape:version="0.92.1 r15371"
   sodipodi:docname="UNESCO-MOW-text.svg">
  <defs
     id="defs5325" />
  <sodipodi:namedview
     id="base"
     bordercolor="#666666"
     borderopacity="1.0"
     inkscape:pageopacity="0.0"
     inkscape:pageshadow="2"
     inkscape:zoom="8.5300151"
     inkscape:cx="31.584537"
     inkscape:cy="47.362166"
     inkscape:document-units="mm"
     inkscape:current-layer="layer1"
     showgrid="false"
     inkscape:window-width="1920"
     inkscape:window-height="1001"
     inkscape:window-x="-9"
     inkscape:window-y="-9"
     inkscape:window-maximized="1"
     fit-margin-top="0"
     fit-margin-left="0"
     fit-margin-right="0"
     fit-margin-bottom="0"
     units="px" />
  <metadata
     id="metadata5328">
    <rdf:RDF>
      <cc:Work
         rdf:about="">
        <dc:format>image/svg+xml</dc:format>
        <dc:type
           rdf:resource="http://purl.org/dc/dcmitype/StillImage" />
        <dc:title></dc:title>
      </cc:Work>
    </rdf:RDF>
  </metadata>
  <g
     inkscape:label="Ebene 1"
     inkscape:groupmode="layer"
     id="layer1"
     transform="translate(112.67817,-136.30212)">
    <path
       style="fill:#757C89;fill-opacity:1;stroke:none;stroke-width:0.35277775"
       d="m -112.25374,158.24853 v -1.7253 l 0.58429,1.7253 h 0.24254 l 0.5898,-1.69223 v 1.69223 h 0.25907 v -2.02296 h -0.35829 l -0.49058,1.4056 c -0.0496,0.14332 -0.0827,0.25356 -0.10473,0.32522 -0.0221,-0.0661 -0.0551,-0.16537 -0.0992,-0.29766 l -0.47956,-1.43316 h -0.40239 v 2.02296 z m 0,0"
       id="path5024"
       inkscape:connector-curvature="0" />
    <path
       style="fill:#757C89;fill-opacity:1;stroke:none;stroke-width:0.35277775"
       d="m -109.33239,158.00049 c -0.0661,0.0496 -0.14331,0.0772 -0.23151,0.0772 -0.12678,0 -0.22599,-0.0441 -0.30868,-0.12678 -0.0827,-0.0882 -0.12678,-0.20947 -0.1378,-0.37483 h 1.09692 c 0,-0.0276 0,-0.0496 0,-0.0606 0,-0.24253 -0.0661,-0.42995 -0.18742,-0.56224 -0.12677,-0.1378 -0.28112,-0.20395 -0.47955,-0.20395 -0.20395,0 -0.36932,0.0661 -0.4961,0.20395 -0.12678,0.1378 -0.18741,0.33073 -0.18741,0.57326 0,0.23703 0.0606,0.42444 0.18741,0.55673 0.12678,0.13229 0.29766,0.19844 0.51263,0.19844 0.16537,0 0.30868,-0.0441 0.41893,-0.12678 0.10473,-0.0827 0.1819,-0.19844 0.22048,-0.34727 l -0.25907,-0.0331 c -0.0331,0.10473 -0.0827,0.18191 -0.14883,0.226 z m -0.53467,-0.93156 c 0.0772,-0.0772 0.17638,-0.11575 0.28663,-0.11575 0.12678,0 0.23151,0.0496 0.30868,0.14331 0.0496,0.0606 0.0827,0.15434 0.0937,0.27561 h -0.81579 c 0.006,-0.12678 0.0496,-0.226 0.12678,-0.30317 z m 0,0"
       id="path5020"
       inkscape:connector-curvature="0" />
    <path
       style="fill:#757C89;fill-opacity:1;stroke:none;stroke-width:0.35277775"
       d="m -108.36235,158.24853 v -0.76067 c 0,-0.1323 0.0165,-0.23703 0.0386,-0.30317 0.0276,-0.0717 0.0717,-0.12678 0.13229,-0.16537 0.0606,-0.0331 0.12127,-0.0551 0.19293,-0.0551 0.0937,0 0.15434,0.0276 0.19843,0.0827 0.0386,0.0551 0.0606,0.13781 0.0606,0.24805 v 0.9536 h 0.24805 v -0.84887 c 0,-0.15434 0.0331,-0.26458 0.0992,-0.33073 0.0717,-0.0717 0.15986,-0.10473 0.25908,-0.10473 0.0606,0 0.11024,0.0165 0.14882,0.0386 0.0441,0.0276 0.0772,0.0661 0.0882,0.10473 0.0165,0.0441 0.0276,0.11576 0.0276,0.21498 v 0.92604 h 0.24805 v -1.00873 c 0,-0.16536 -0.0386,-0.28663 -0.12127,-0.36931 -0.0772,-0.0827 -0.18741,-0.12127 -0.33624,-0.12127 -0.1819,0 -0.33624,0.0827 -0.452,0.25907 -0.0276,-0.0827 -0.0772,-0.14331 -0.14883,-0.19292 -0.0661,-0.0441 -0.15985,-0.0661 -0.26458,-0.0661 -0.0992,0 -0.1819,0.022 -0.25907,0.0661 -0.0772,0.0441 -0.13781,0.0992 -0.18741,0.17087 v -0.20395 h -0.22049 v 1.46624 z m 0,0"
       id="path5016"
       inkscape:connector-curvature="0" />
    <path
       style="fill:#757C89;fill-opacity:1;stroke:none;stroke-width:0.35277775"
       d="m -106.1631,158.08317 c 0.12678,0.13229 0.29766,0.19844 0.50161,0.19844 0.12678,0 0.24253,-0.0331 0.35278,-0.0937 0.11024,-0.0606 0.19292,-0.13781 0.24804,-0.24805 0.0551,-0.11024 0.0827,-0.25907 0.0827,-0.44649 0,-0.23151 -0.0661,-0.41341 -0.19293,-0.5457 -0.12678,-0.13229 -0.28663,-0.19844 -0.49058,-0.19844 -0.1819,0 -0.33624,0.0551 -0.46302,0.16537 -0.14883,0.12678 -0.226,0.33073 -0.226,0.60082 0,0.24805 0.0606,0.43546 0.18741,0.56775 z m 0.19293,-0.98668 c 0.0827,-0.0937 0.1819,-0.1378 0.30868,-0.1378 0.12127,0 0.226,0.0441 0.30868,0.1378 0.0772,0.0937 0.12127,0.23151 0.12127,0.41341 0,0.18742 -0.0441,0.33073 -0.12127,0.42444 -0.0827,0.0937 -0.18741,0.14332 -0.30868,0.14332 -0.12678,0 -0.226,-0.0496 -0.30868,-0.13781 -0.0827,-0.0937 -0.12678,-0.23702 -0.12678,-0.42443 0,-0.18742 0.0441,-0.32522 0.12678,-0.41893 z m 0,0"
       id="path5012"
       inkscape:connector-curvature="0" />
    <path
       style="fill:#757C89;fill-opacity:1;stroke:none;stroke-width:0.35277775"
       d="m -104.44342,158.24853 v -0.76619 c 0,-0.10473 0.0165,-0.19843 0.0441,-0.29214 0.0165,-0.0551 0.0496,-0.0992 0.0937,-0.13229 0.0386,-0.0331 0.0937,-0.0496 0.14332,-0.0496 0.0606,0 0.12127,0.0165 0.1819,0.0496 l 0.0882,-0.23151 c -0.0882,-0.0496 -0.17088,-0.0772 -0.25356,-0.0772 -0.0606,0 -0.11576,0.0165 -0.15986,0.0496 -0.0496,0.0331 -0.10473,0.10473 -0.15985,0.20395 v -0.22049 h -0.226 v 1.46623 z m 0,0"
       id="path5008"
       inkscape:connector-curvature="0" />
    <path
       style="fill:#757C89;fill-opacity:1;stroke:none;stroke-width:0.35277775"
       d="m -103.59642,158.84384 c 0.0772,0 0.14883,-0.0221 0.20395,-0.0606 0.0606,-0.0386 0.11024,-0.0937 0.15434,-0.17638 0.0331,-0.0606 0.0772,-0.17088 0.1378,-0.33073 l 0.55673,-1.4938 h -0.24805 l -0.31419,0.85438 c -0.0386,0.11025 -0.0772,0.22049 -0.10473,0.33073 -0.0276,-0.11575 -0.0661,-0.23151 -0.10473,-0.33624 l -0.30868,-0.84887 h -0.26458 l 0.55672,1.47174 c -0.011,0.0276 -0.0165,0.0441 -0.0221,0.0606 -0.0331,0.0992 -0.0606,0.15986 -0.0772,0.18742 -0.0165,0.0331 -0.0441,0.0551 -0.0827,0.0772 -0.0276,0.0165 -0.0717,0.0276 -0.13229,0.0276 -0.0386,0 -0.0882,-0.011 -0.1378,-0.0221 l 0.0276,0.226 c 0.0606,0.0221 0.11024,0.0331 0.15985,0.0331 z m 0,0"
       id="path5004"
       inkscape:connector-curvature="0" />
    <path
       style="fill:#757C89;fill-opacity:1;stroke:none;stroke-width:0.35277775"
       d=""
       id="path5000"
       inkscape:connector-curvature="0" />
    <path
       style="fill:#757C89;fill-opacity:1;stroke:none;stroke-width:0.35277775"
       d="m -101.4528,158.08317 c 0.12678,0.13229 0.29766,0.19844 0.50161,0.19844 0.12678,0 0.24253,-0.0331 0.35278,-0.0937 0.11024,-0.0606 0.19292,-0.13781 0.24804,-0.24805 0.0551,-0.11024 0.0827,-0.25907 0.0827,-0.44649 0,-0.23151 -0.0661,-0.41341 -0.19292,-0.5457 -0.12678,-0.13229 -0.28663,-0.19844 -0.49058,-0.19844 -0.1819,0 -0.33624,0.0551 -0.46302,0.16537 -0.14883,0.12678 -0.226,0.33073 -0.226,0.60082 0,0.24805 0.0606,0.43546 0.18741,0.56775 z m 0.19293,-0.98668 c 0.0827,-0.0937 0.1819,-0.1378 0.30868,-0.1378 0.12127,0 0.226,0.0441 0.30868,0.1378 0.0772,0.0937 0.12127,0.23151 0.12127,0.41341 0,0.18742 -0.0441,0.33073 -0.12127,0.42444 -0.0827,0.0937 -0.18741,0.14332 -0.30868,0.14332 -0.12678,0 -0.226,-0.0496 -0.30868,-0.13781 -0.0827,-0.0937 -0.12678,-0.23702 -0.12678,-0.42443 0,-0.18742 0.0441,-0.32522 0.12678,-0.41893 z m 0,0"
       id="path4996"
       inkscape:connector-curvature="0" />
    <path
       style="fill:#757C89;fill-opacity:1;stroke:none;stroke-width:0.35277775"
       d="m -99.666972,158.24853 v -1.2733 h 0.28112 v -0.19293 h -0.286632 v -0.1378 c 0,-0.0882 0.01653,-0.14883 0.04961,-0.17639 0.03307,-0.0331 0.08268,-0.0496 0.159852,-0.0496 0.0441,0 0.09371,0.006 0.143316,0.0165 l 0.03858,-0.22049 c -0.08268,-0.0165 -0.159852,-0.0221 -0.23151,-0.0221 -0.110243,0 -0.192926,0.0165 -0.253559,0.0551 -0.06063,0.0386 -0.09922,0.0937 -0.12678,0.15985 -0.01653,0.0441 -0.02205,0.12127 -0.02205,0.22049 v 0.15434 h -0.220485 v 0.19292 h 0.220485 v 1.27331 z m 0,0"
       id="path4992"
       inkscape:connector-curvature="0" />
    <path
       style="fill:#757C89;fill-opacity:1;stroke:none;stroke-width:0.35277775"
       d="m -112.10491,161.12201 c -0.0331,0 -0.0606,-0.011 -0.0827,-0.022 -0.022,-0.011 -0.0331,-0.0276 -0.0441,-0.0496 -0.006,-0.0165 -0.011,-0.0662 -0.011,-0.1323 v -0.85989 h 0.24805 v -0.19292 h -0.24805 v -0.51263 l -0.24805,0.14882 v 0.36381 h -0.18741 v 0.19292 h 0.18741 v 0.84336 c 0,0.14883 0.011,0.24805 0.0276,0.29214 0.0221,0.0496 0.0551,0.0882 0.10473,0.11576 0.0496,0.0276 0.12127,0.0441 0.20947,0.0441 0.0551,0 0.11575,-0.011 0.18741,-0.0276 l -0.0331,-0.21497 c -0.0441,0.006 -0.0827,0.011 -0.11025,0.011 z m 0,0"
       id="path4988"
       inkscape:connector-curvature="0" />
    <path
       style="fill:#757C89;fill-opacity:1;stroke:none;stroke-width:0.35277775"
       d="m -111.50152,161.33147 v -0.79926 c 0,-0.11576 0.0165,-0.20947 0.0441,-0.2701 0.022,-0.0661 0.0717,-0.11576 0.13229,-0.15985 0.0661,-0.0331 0.13229,-0.0551 0.20946,-0.0551 0.0992,0 0.17639,0.0276 0.226,0.0827 0.0551,0.0606 0.0827,0.14883 0.0827,0.2756 v 0.92605 h 0.24805 v -0.92605 c 0,-0.14331 -0.0165,-0.25355 -0.0496,-0.33072 -0.0386,-0.0772 -0.0937,-0.1323 -0.17639,-0.17639 -0.0772,-0.0441 -0.17088,-0.0662 -0.27561,-0.0662 -0.1819,0 -0.32522,0.0662 -0.44097,0.20395 v -0.7276 h -0.24805 v 2.02296 z m 0,0"
       id="path4984"
       inkscape:connector-curvature="0" />
    <path
       style="fill:#757C89;fill-opacity:1;stroke:none;stroke-width:0.35277775"
       d="m -109.32984,161.08342 c -0.0661,0.0496 -0.14332,0.0772 -0.23151,0.0772 -0.12678,0 -0.226,-0.0441 -0.30868,-0.12678 -0.0827,-0.0882 -0.12678,-0.20946 -0.1378,-0.37483 h 1.09691 c 0,-0.0276 0,-0.0496 0,-0.0606 0,-0.24253 -0.0661,-0.42994 -0.18741,-0.56224 -0.12678,-0.1378 -0.28112,-0.20395 -0.47956,-0.20395 -0.20395,0 -0.36931,0.0662 -0.49609,0.20395 -0.12678,0.13781 -0.18741,0.33073 -0.18741,0.57327 0,0.23702 0.0606,0.42443 0.18741,0.55673 0.12678,0.13229 0.29766,0.19843 0.51263,0.19843 0.16536,0 0.30868,-0.0441 0.41892,-0.12678 0.10473,-0.0827 0.1819,-0.19843 0.22049,-0.34726 l -0.25907,-0.0331 c -0.0331,0.10473 -0.0827,0.1819 -0.14883,0.226 z m -0.53468,-0.93155 c 0.0772,-0.0772 0.17639,-0.11576 0.28663,-0.11576 0.12678,0 0.23151,0.0496 0.30868,0.14332 0.0496,0.0606 0.0827,0.15434 0.0937,0.27561 h -0.8158 c 0.006,-0.12678 0.0496,-0.226 0.12678,-0.30317 z m 0,0"
       id="path4980"
       inkscape:connector-curvature="0" />
    <path
       style="fill:#757C89;fill-opacity:1;stroke:none;stroke-width:0.35277775"
       d=""
       id="path4976"
       inkscape:connector-curvature="0" />
    <path
       style="fill:#757C89;fill-opacity:1;stroke:none;stroke-width:0.35277775"
       d="m -107.16352,161.33147 0.42995,-1.54341 c 0.0165,-0.0661 0.0386,-0.14331 0.0606,-0.23702 0.006,0.0276 0.0276,0.11025 0.0661,0.23702 l 0.42443,1.54341 h 0.25907 l 0.55673,-2.02296 h -0.27009 l -0.31971,1.30087 c -0.0386,0.16536 -0.0717,0.31419 -0.0992,0.44097 -0.0386,-0.226 -0.0882,-0.46302 -0.15985,-0.71658 l -0.29214,-1.02526 h -0.31971 l -0.38585,1.36701 c -0.006,0.0331 -0.0386,0.15985 -0.0882,0.37483 -0.0276,-0.13781 -0.0606,-0.27561 -0.0882,-0.41341 l -0.30868,-1.32843 h -0.27561 l 0.53468,2.02296 z m 0,0"
       id="path4972"
       inkscape:connector-curvature="0" />
    <path
       style="fill:#757C89;fill-opacity:1;stroke:none;stroke-width:0.35277775"
       d="m -105.10654,161.1661 c 0.12678,0.13229 0.29766,0.19844 0.50161,0.19844 0.12678,0 0.24253,-0.0331 0.35277,-0.0937 0.11025,-0.0606 0.19293,-0.1378 0.24805,-0.24805 0.0551,-0.11024 0.0827,-0.25907 0.0827,-0.44648 0,-0.23151 -0.0661,-0.41341 -0.19292,-0.5457 -0.12678,-0.1323 -0.28663,-0.19844 -0.49058,-0.19844 -0.18191,0 -0.33625,0.0551 -0.46303,0.16536 -0.14882,0.12678 -0.22599,0.33073 -0.22599,0.60083 0,0.24805 0.0606,0.43546 0.18741,0.56775 z m 0.19293,-0.98667 c 0.0827,-0.0937 0.1819,-0.13781 0.30868,-0.13781 0.12126,0 0.22599,0.0441 0.30868,0.13781 0.0772,0.0937 0.12126,0.23151 0.12126,0.41341 0,0.18741 -0.0441,0.33073 -0.12126,0.42443 -0.0827,0.0937 -0.18742,0.14332 -0.30868,0.14332 -0.12678,0 -0.226,-0.0496 -0.30868,-0.1378 -0.0827,-0.0937 -0.12678,-0.23703 -0.12678,-0.42444 0,-0.18741 0.0441,-0.32522 0.12678,-0.41892 z m 0,0"
       id="path4968"
       inkscape:connector-curvature="0" />
    <path
       style="fill:#757C89;fill-opacity:1;stroke:none;stroke-width:0.35277775"
       d="m -103.38686,161.33147 v -0.76619 c 0,-0.10473 0.0165,-0.19844 0.0441,-0.29215 0.0165,-0.0551 0.0496,-0.0992 0.0937,-0.13229 0.0386,-0.0331 0.0937,-0.0496 0.14331,-0.0496 0.0606,0 0.12127,0.0165 0.1819,0.0496 l 0.0882,-0.23151 c -0.0882,-0.0496 -0.17088,-0.0772 -0.25356,-0.0772 -0.0606,0 -0.11576,0.0165 -0.15985,0.0496 -0.0496,0.0331 -0.10473,0.10473 -0.15986,0.20395 v -0.22049 h -0.22599 v 1.46624 z m 0,0"
       id="path4964"
       inkscape:connector-curvature="0" />
    <path
       style="fill:#757C89;fill-opacity:1;stroke:none;stroke-width:0.35277775"
       d="m -102.44615,161.33147 v -2.02296 h -0.24805 v 2.02296 z m 0,0"
       id="path4960"
       inkscape:connector-curvature="0" />
    <path
       style="fill:#757C89;fill-opacity:1;stroke:none;stroke-width:0.35277775"
       d="m -100.88205,161.33147 v -2.02296 h -0.24804 v 0.7276 c -0.0441,-0.0606 -0.0992,-0.11024 -0.17088,-0.14883 -0.0661,-0.0331 -0.14883,-0.0551 -0.23702,-0.0551 -0.12127,0 -0.226,0.0331 -0.32522,0.0992 -0.0992,0.0606 -0.17088,0.14883 -0.22049,0.2701 -0.0441,0.11575 -0.0717,0.24805 -0.0717,0.39687 0,0.14883 0.0276,0.28112 0.0827,0.39688 0.0551,0.11575 0.12678,0.20395 0.226,0.27009 0.0992,0.0661 0.20395,0.0992 0.31971,0.0992 0.1819,0 0.3197,-0.0772 0.41341,-0.22048 v 0.18741 z m -0.9095,-1.15755 c 0.0772,-0.0882 0.16536,-0.1323 0.28112,-0.1323 0.11024,0 0.20395,0.0441 0.28663,0.13781 0.0772,0.0937 0.11576,0.24253 0.11576,0.44097 0,0.1819 -0.0386,0.3197 -0.11576,0.4079 -0.0772,0.0827 -0.17088,0.13229 -0.28112,0.13229 -0.10473,0 -0.19844,-0.0496 -0.27561,-0.1378 -0.0827,-0.0937 -0.12126,-0.23703 -0.12126,-0.42444 0,-0.19292 0.0386,-0.33073 0.11024,-0.42443 z m 0,0"
       id="path4956"
       inkscape:connector-curvature="0" />
    <path
       inkscape:connector-curvature="0"
       id="path1867"
       d="m -108.62886,144.61858 h 0.73174 c 0.004,1.99265 1.61782,3.60357 3.61184,3.60771 1.99402,-0.004 3.6077,-1.61506 3.61046,-3.60771 -0.003,-1.99402 -1.61644,-3.60494 -3.61046,-3.60908 v -0.73174 c 2.39779,0 4.342196,1.94166 4.342196,4.34082 0,2.39641 -1.944406,4.34082 -4.342196,4.34082 -2.40054,0 -4.34358,-1.94441 -4.34358,-4.34082 m 4.34358,5.59622 c 3.09094,-0.006 5.594835,-2.50666 5.597591,-5.5976 -0.0028,-3.08956 -2.506651,-5.58932 -5.597591,-5.59483 -3.09232,0.006 -5.59483,2.50527 -5.59897,5.59483 h -0.73449 c 0.003,-3.4947 2.83462,-6.32795 6.33346,-6.32795 3.4947,0 6.329329,2.83325 6.329329,6.32795 0,3.49609 -2.834629,6.32933 -6.329329,6.32933 z m -8.3206,-5.5976 c 0,-4.593 3.72484,-8.31508 8.3206,-8.31508 4.592999,0 8.320594,3.72208 8.320594,8.31508 h -0.731739 c -0.01101,-4.18785 -3.399625,-7.57507 -7.588855,-7.58334 -4.18924,0.008 -7.58197,3.39549 -7.58886,7.58334 0.007,4.18786 3.39962,7.57646 7.58886,7.58473 v 0.73173 c -4.59576,0 -8.3206,-3.72208 -8.3206,-8.31646"
       style="fill:#757C89;fill-opacity:1;fill-rule:nonzero;stroke:none;stroke-width:0.35277775" />
  </g>
</svg>
