<svg xmlns="http://www.w3.org/2000/svg" width="228" height="229" viewBox="0 0 228 229">
    <defs>
        <filter id="pv47skc98a">
            <feColorMatrix in="SourceGraphic" values="0 0 0 0 0.458824 0 0 0 0 0.486275 0 0 0 0 0.537255 0 0 0 1.000000 0"/>
        </filter>
    </defs>
    <g fill="none" fill-rule="evenodd">
        <g transform="translate(-164 -253)">
            <g>
                <path fill="#757c89" d="M80.425 182.848c0-.819-.065-1.066.846-1.066.117 0 .337 0 .337-.169 0-.144-.104-.182-.22-.182-.494 0-.989.052-1.483.052-.494 0-.963-.052-1.457-.052-.13 0-.221.038-.221.182 0 .169.209.169.325.169.911 0 .846.247.846 1.066v5.321c0 .818.065 1.065-.833 1.065-.129 0-.338 0-.338.17 0 .129.104.182.221.182.443 0 .859-.053 1.301-.053 1.248 0 2.523.053 3.772.053.351 0 .325-.157.337-.494.014-.456.144-.912.144-1.353 0-.091 0-.182-.117-.182-.078 0-.131.103-.156.168-.144.352-.377.833-.677 1.079-.364.3-.962.43-1.43.43-1.171 0-1.197-.469-1.197-1.457v-4.929M88.367 182.459c0-.221-.039-.508.208-.599.208-.078.78-.078.989-.078.441 0 1.001 0 1.43.13.429.13.611.364.806.768l.195.364c.039.091.091.259.209.259.13 0 .116-.195.116-.272v-1.119c0-.168.066-.481-.182-.481-1.105 0-2.198.052-3.316.052-.806 0-1.638-.052-2.445-.052-.117 0-.221.065-.221.196 0 .155.208.155.338.155.898 0 .845.26.845 1.066v5.294c0 .832.053 1.092-.845 1.092-.13 0-.338.013-.338.155 0 .144.104.197.221.197.26 0 .546-.053.807-.053h5.085c.104 0 .129.014.143-.077l.194-1.379c.027-.105.053-.209.053-.312 0-.09-.039-.143-.13-.143-.156 0-.248.35-.286.442-.443 1.144-1.158 1.17-2.277 1.17-1.027 0-1.599-.013-1.599-1.209v-2.264c0-.442.13-.442.65-.442.39 0 1.067 0 1.574.117.286.066.39.456.455.833.013.078.052.221.169.221.065 0 .143-.026.143-.234-.013-.416-.039-.806-.065-1.223.026-.363.052-.754.065-1.118 0-.105-.078-.129-.143-.129-.117 0-.156.141-.169.221-.065.376-.13.857-.455.897-.507.065-1.184.052-1.574.052-.533 0-.65 0-.65-.612v-1.885M96.31 188.18c0 .821.065 1.08-.846 1.08-.116 0-.325-.013-.325.156 0 .143.104.17.221.17.494 0 .989-.053 1.483-.053.494 0 .963.053 1.457.053.116 0 .221-.027.221-.17 0-.169-.221-.156-.338-.156-.898-.013-.846-.248-.846-1.08v-5.332c0-.819-.065-1.066.846-1.066.117 0 .338 0 .338-.169 0-.144-.105-.182-.221-.182-.494 0-.989.052-1.483.052-.494 0-.963-.052-1.457-.052-.13 0-.221.038-.221.182 0 .169.209.169.325.169.911 0 .846.247.846 1.066v5.332M103.353 185.761c0-.714.116-.597.884-.597.728 0 1.417 0 2.068.377.663.364 1.001 1.001 1.001 1.756 0 .546-.247 1.13-.65 1.495-.482.442-1.053.521-1.678.521-.338 0-.962-.014-1.249-.196-.403-.246-.376-.846-.376-1.261v-2.095zm0-3.315c0-.222-.027-.573.129-.742.208-.235.794-.235 1.067-.235 1.131 0 2.211.469 2.211 1.77 0 .455-.156.897-.482 1.196-.442.416-1.027.469-1.586.469h-.702c-.573 0-.637-.026-.637-.625v-1.833zm-1.028 5.696c0 .832.052 1.118-.858 1.118-.117 0-.325-.039-.325.129 0 .144.104.197.22.197.274 0 .56-.053.82-.053 1.066 0 2.107.053 3.173.053.768 0 1.444-.053 2.094-.508.598-.39 1.014-1.079 1.014-1.821 0-1.314-1.157-2.159-2.327-2.301.884-.183 1.807-.755 1.807-1.781 0-.769-.559-1.34-1.222-1.627-.755-.325-1.769-.325-2.575-.325-.754 0-1.847.026-2.575.156-.143.026-.599.09-.599.312 0 .078.066.117.143.117.156 0 .378-.104.625-.104.676 0 .585.572.585 1.093v5.345zM118.059 187.856l-4.604-5.97c-.156-.209-.26-.39-.533-.455h-1.613c-.143 0-.312.013-.312.208 0 .143.208.143.325.143.91 0 .845.26.845 1.08v5.318c0 .807.065 1.08-.845 1.08-.117 0-.338-.039-.338.129 0 .144.104.197.234.197.377 0 .767-.053 1.132-.053.39 0 .754.053 1.144.053.13 0 .221-.053.221-.197 0-.168-.208-.129-.325-.129-.911 0-.845-.273-.845-1.08v-5.878l5.462 7.102c.065.103.182.312.325.312.117 0 .091-.183.091-.248v-6.606c0-.807-.052-1.08.846-1.08.129 0 .337 0 .337-.143s-.103-.208-.22-.208c-.378 0-.741.052-1.132.052-.39 0-.754-.052-1.145-.052-.13 0-.234.065-.234.208s.209.143.325.143c.911 0 .859.26.859 1.08v4.994M122.956 188.18c0 .821.065 1.08-.845 1.08-.117 0-.325-.013-.325.156 0 .143.104.17.221.17.494 0 .988-.053 1.482-.053.495 0 .963.053 1.457.053.117 0 .221-.027.221-.17 0-.169-.221-.156-.338-.156-.897-.013-.845-.248-.845-1.08v-5.332c0-.819-.065-1.066.845-1.066.117 0 .338 0 .338-.169 0-.144-.104-.182-.221-.182-.494 0-.988.052-1.482.052s-.963-.052-1.457-.052c-.13 0-.221.038-.221.182 0 .169.208.169.325.169.91 0 .845.247.845 1.066v5.332M131.599 182.42c0-.663 0-.638.585-.638h.754c.404 0 .767 0 1.053.339.196.247.286.61.378.884.026.078.052.181.143.181.143 0 .156-.116.156-.22l.078-1.587c0-.091.065-.468-.117-.468-.13 0-.156.116-.195.222-.13.363-.455.298-.793.298h-4.721c-.208 0-.482.038-.65-.104-.105-.078-.092-.156-.105-.274 0-.078-.039-.142-.117-.142-.116 0-.143.091-.169.182l-.507 1.69c-.026.065-.078.222-.078.312 0 .091.039.157.13.157.13 0 .234-.221.286-.312.624-1.041 1.105-1.158 2.289-1.158.403 0 .572-.091.572.378v6.02c0 .821.066 1.08-.845 1.08-.117 0-.326-.013-.326.156 0 .143.105.17.222.17.494 0 .988-.053 1.482-.053.495 0 .962.053 1.457.053.117 0 .221-.027.221-.17 0-.169-.221-.156-.338-.156-.897 0-.845-.248-.845-1.08v-5.76M138.032 188.18c0 .821.065 1.08-.845 1.08-.118 0-.326-.013-.326.156 0 .143.105.17.221.17.494 0 .988-.053 1.483-.053.495 0 .962.053 1.456.053.118 0 .221-.027.221-.17 0-.169-.221-.156-.338-.156-.897-.013-.844-.248-.844-1.08v-5.332c0-.819-.066-1.066.844-1.066.117 0 .338 0 .338-.169 0-.144-.103-.182-.221-.182-.494 0-.988.052-1.482.052s-.963-.052-1.457-.052c-.13 0-.221.038-.221.182 0 .169.208.169.326.169.91 0 .845.247.845 1.066v5.332M143.878 188.18c0 .821.065 1.08-.846 1.08-.117 0-.325-.013-.325.156 0 .143.105.17.222.17.494 0 .988-.053 1.482-.053s.962.053 1.457.053c.116 0 .221-.027.221-.17 0-.169-.221-.156-.338-.156-.897-.013-.846-.248-.846-1.08v-5.332c0-.819-.065-1.066.846-1.066.117 0 .338 0 .338-.169 0-.144-.105-.182-.221-.182-.495 0-.989.052-1.483.052-.494 0-.962-.052-1.456-.052-.13 0-.222.038-.222.182 0 .169.208.169.325.169.911 0 .846.247.846 1.066v5.332M98.345 170.28c-.039-.43.078-.716-.365-.885-.624-.247-1.43-.363-2.093-.363-2.497 0-4.942 1.794-4.942 4.395 0 1.249.546 2.263 1.508 3.056.911.741 2.003 1.015 3.174 1.015.949 0 1.963-.195 2.769-.715.3-.195.235-.338.235-.677v-1.495c0-.195-.026-.572.143-.716.091-.091.286-.091.403-.103l.247-.027c.117 0 .247-.012.247-.169 0-.129-.117-.156-.221-.156-.455 0-.897.053-1.34.053-.467 0-.936-.053-1.404-.053-.117 0-.299 0-.299.169s.182.156.312.156c.754 0 .885.118.885.846v1.079c0 .313.025.872-.248 1.093-.364.3-1.04.364-1.482.364-1.119 0-2.068-.299-2.81-1.158-.663-.754-.936-1.665-.936-2.653 0-.936.325-2.041.936-2.783.664-.819 1.587-1.144 2.615-1.144 2.301 0 2.054 1.677 2.497 1.677.143 0 .195-.129.195-.26l-.026-.546M104.286 170.266c0-.219-.039-.506.208-.597.208-.078.78-.078.988-.078.442 0 1.001 0 1.431.13.429.129.611.364.806.767l.195.364c.039.091.091.26.208.26.13 0 .117-.194.117-.272v-1.119c0-.169.065-.482-.182-.482-1.105 0-2.198.053-3.316.053-.806 0-1.639-.053-2.445-.053-.117 0-.221.065-.221.196 0 .156.208.156.338.156.897 0 .845.259.845 1.066v5.294c0 .832.052 1.092-.845 1.092-.13 0-.338.013-.338.156s.104.195.221.195c.26 0 .546-.052.806-.052h5.085c.104 0 .13.013.143-.078l.195-1.379c.026-.104.053-.208.053-.312 0-.091-.039-.144-.131-.144-.156 0-.247.352-.286.443-.442 1.144-1.157 1.171-2.276 1.171-1.027 0-1.599-.013-1.599-1.209v-2.264c0-.442.13-.442.65-.442.39 0 1.066 0 1.574.117.286.064.39.455.455.833.013.077.052.221.169.221.065 0 .143-.027.143-.235-.013-.416-.039-.805-.065-1.222.026-.364.052-.753.065-1.119 0-.103-.078-.129-.143-.129-.117 0-.156.143-.169.22-.065.377-.13.86-.455.899-.508.064-1.184.051-1.574.051-.533 0-.65 0-.65-.611v-1.887M118.12 175.665l-4.604-5.97c-.156-.208-.26-.391-.533-.456h-1.613c-.143 0-.312.014-.312.209 0 .143.208.143.325.143.91 0 .846.259.846 1.08v5.318c0 .807.064 1.079-.846 1.079-.117 0-.338-.038-.338.131 0 .143.104.195.234.195.377 0 .767-.052 1.132-.052.39 0 .754.052 1.144.052.13 0 .221-.052.221-.195 0-.169-.208-.131-.325-.131-.91 0-.846-.272-.846-1.079v-5.878l5.463 7.101c.065.104.182.312.325.312.117 0 .091-.182.091-.248v-6.605c0-.807-.052-1.08.845-1.08.13 0 .339 0 .339-.143 0-.144-.105-.209-.222-.209-.377 0-.741.053-1.131.053s-.754-.053-1.144-.053c-.13 0-.234.065-.234.209 0 .143.208.143.325.143.91 0 .858.259.858 1.08v4.994M123.018 175.989c0 .819.064 1.079-.846 1.079-.117 0-.325-.012-.325.156 0 .144.104.17.221.17.495 0 .989-.052 1.483-.052.494 0 .962.052 1.456.052.117 0 .222-.026.222-.17 0-.168-.222-.156-.338-.156-.898-.012-.846-.246-.846-1.079v-5.332c0-.818-.066-1.066.846-1.066.116 0 .338 0 .338-.169 0-.144-.105-.183-.222-.183-.494 0-.988.053-1.483.053-.494 0-.961-.053-1.456-.053-.13 0-.221.039-.221.183 0 .169.208.169.325.169.91 0 .846.248.846 1.066v5.332M135.73 173.259c0 .974-.195 1.846-.806 2.626-.624.768-1.509 1.249-2.51 1.249-.988 0-1.898-.403-2.523-1.157-.637-.755-.871-1.744-.871-2.718 0-.937.22-1.913.819-2.654.624-.793 1.56-1.222 2.575-1.222.976 0 1.834.442 2.458 1.183.65.793.858 1.691.858 2.693zm-7.88 0c0 2.367 2.197 4.239 4.538 4.239 2.471 0 4.526-1.73 4.526-4.239 0-2.51-2.055-4.227-4.526-4.227-2.341 0-4.538 1.859-4.538 4.227zM40.458 181.15L41.259 180.479 38.833 177.588 41.724 175.162 41.052 174.361 38.161 176.787 35.748 173.911 34.947 174.583 37.36 177.459 34.484 179.872 35.156 180.673 38.032 178.26 40.458 181.15M22.441 159.066c-.104.008-.598.098-.666-.042-.051-.104.333-.463.386-.532l2.381-2.625c.034-.018.253-.275.323-.309.191-.092.334.333.385.437l.976 2.001c.033.069.375.593.201.677-.052.025-.174.041-.235.049l-3.751.344zm5.562-.516c-.753.044-.772.182-1.111-.514l-1.154-2.365c-.407-.835-.348-.713.361-1.511l1.05-1.201c.184-.198.491-.541.734-.659.522-.255.844.406 1.065.857.085.175.246.506.507.378.156-.076.089-.259.038-.363-.314-.644-.706-1.271-1.012-1.897-.373-.765-.676-1.565-1.05-2.33-.042-.087-.144-.253-.301-.176-.261.126-.1.457-.015.632.416.852-.449 1.64-.991 2.249l-7.019 7.773c-.087.086-.279.265-.211.405.093.191.362.124.526.108l10.353-.893c.39-.039 1.342-.116 1.696-.009.354.107.55.421.703.733.076.158.237.488.481.369.295-.144-.03-.545-.114-.719-.238-.488-.545-.941-.783-1.428-.237-.486-.405-1.008-.643-1.494-.085-.175-.203-.418-.412-.317-.243.119-.082.407-.006.563.196.4.517 1.191-.057 1.472-.313.152-.746.19-1.076.222l-1.559.115zM13.172 140.908c-.497.222-.761.227-.771.82-.019.881.179 2.241.448 3.071 1.094 3.367 4.615 5.561 8.02 4.455 3.258-1.06 5.17-4.632 4.082-7.982-.395-1.215-.988-2.161-1.856-3.079-.461-.482-.492-.451-1.074-.303l-1.521.393c-.135.023-.222.132-.174.28.161.497 3.123-.221 4.05 2.632.484 1.491.064 2.889-.821 4.112-.816 1.12-1.929 1.89-3.237 2.315-2.76.895-5.907.23-6.912-2.862-.927-2.854 1.381-3.766 1.225-4.245-.047-.147-.157-.172-.304-.125l-1.155.518M13.379 132.108c-.102-.022-.601-.081-.625-.234-.018-.114.455-.346.525-.397l3.044-1.813c.038-.007.323-.189.399-.201.21-.033.223.416.241.53l.348 2.198c.012.077.186.677-.006.707-.057.008-.178-.012-.238-.021l-3.688-.769zm5.47 1.133c-.734-.178-.792-.052-.913-.815l-.412-2.6c-.145-.918-.124-.784.788-1.34l1.355-.842c.233-.134.627-.373.895-.415.573-.092.688.635.767 1.132.03.191.088.555.374.509.173-.026.161-.222.143-.336-.112-.707-.304-1.421-.412-2.11-.134-.84-.19-1.694-.324-2.536-.015-.095-.064-.284-.236-.255-.287.044-.229.409-.199.599.148.937-.909 1.437-1.606 1.862l-8.984 5.38c-.109.057-.345.172-.321.326.033.21.31.225.472.258l10.161 2.172c.384.077 1.318.281 1.625.488.307.206.403.563.457.907.027.172.085.536.353.492.325-.05.131-.529.101-.721-.085-.535-.246-1.058-.331-1.594-.084-.535-.093-1.083-.178-1.617-.03-.191-.072-.459-.302-.423-.268.042-.197.365-.17.537.07.44.146 1.29-.485 1.389-.344.055-.77-.035-1.093-.101l-1.525-.346zM10.125 119.262c-.31.005-.91.036-1.146-.192-.295-.286-.351-1.253-.358-1.659-.061-3.503 2.237-6.021 5.836-6.083 1.51-.027 3.067.507 4.189 1.533 1.239 1.159 1.573 2.527 1.601 4.152.03 1.685-.37 2.08-2.092 2.109l-8.03.14zm8.405 1.383c1.238-.023 1.662-.127 1.686 1.228.003.194-.03.505.221.5.194-.003.269-.159.266-.334-.007-.407-.092-.792-.099-1.218-.024-1.394.028-2.826.003-4.258-.033-1.878-.391-3.575-1.674-5.004-1.184-1.295-2.9-2.02-4.681-1.99-1.857.033-3.582 1.031-4.659 2.521-1.059 1.47-1.454 3.219-1.423 5 .014.773.329 5.548 1.026 5.537.116-.002.211-.081.209-.217-.003-.193-.222-.558-.23-.964-.013-.754.783-.652 1.363-.661l7.992-.14zM10.606 102.782c-.326-.039-.756-.033-.846-.415-.077-.321.027-1.167.064-1.474.081-.653.182-1.479.452-2.089.27-.61.649-.837 1.28-1.052l.573-.222c.142-.042.4-.087.422-.26.023-.193-.267-.209-.382-.223l-1.652-.203c-.25-.03-.7-.183-.744.182-.201 1.632-.322 3.256-.525 4.907-.146 1.192-.374 2.411-.52 3.603-.021.173.056.338.248.362.23.028.268-.28.292-.471.163-1.326.537-1.202 1.728-1.055l7.819.96c1.229.151 1.622.12 1.46 1.446-.024.192-.043.502.169.528.211.025.307-.119.329-.292.046-.383.021-.816.069-1.2l.922-7.511c.019-.153.043-.189-.09-.225l-2-.539c-.149-.057-.298-.114-.452-.133-.135-.017-.218.032-.235.167-.028.23.474.428.601.502 1.611.861 1.519 1.922 1.316 3.574-.186 1.518-.309 2.361-2.076 2.143l-3.343-.409c-.652-.081-.629-.273-.535-1.042.071-.576.194-1.575.459-2.303.148-.41.743-.493 1.312-.521.117-.006.336-.037.357-.21.011-.095-.013-.215-.32-.254-.617-.055-1.198-.088-1.818-.125-.533-.104-1.104-.213-1.64-.298-.153-.019-.206.091-.218.187-.021.173.183.256.296.29.545.165 1.245.347 1.243.835.004.76-.138 1.758-.208 2.333-.097.788-.119.961-1.021.85l-2.786-.343M11.904 89.183c-.329.032-.577-.014-.672.342l-.581 2.168c-.055.205-.239.517.06.597.262.071.369-.182.419-.368.271-1.01.403-1.054 1.336-.724l8.127 2.798c.901.302 1.372.488 1.091 1.535-.045.168-.111.491.113.55.187.051.259-.07.305-.238.145-.542.22-1.123.371-1.684.15-.561.375-1.101.525-1.663.045-.168.11-.41-.114-.471-.262-.07-.348.328-.399.514-.355 1.328-1.303 1.053-2.424.674l-7.557-2.607.036-.131 10.464-1.143c.141-.002.381.002.431-.184.045-.168-.146-.28-.262-.371l-8.608-6.754.035-.132 8.468 2.269c.336.09 1.038.238 1.215.626.113.252.101.669.026.949-.05.188-.193.569.087.644.206.055.28-.145.32-.294.196-.73.321-1.497.521-2.244.161-.599.396-1.177.556-1.775.04-.15.077-.361-.129-.416-.281-.075-.348.328-.398.514-.071.262-.164.537-.439.664-.322.155-1.064-.065-1.364-.145l-7.72-2.068c-.337-.09-1.086-.211-1.287-.506-.161-.223.005-.619.07-.862.051-.187.083-.459-.178-.529-.3-.08-.296.281-.351.486l-.556 2.076c-.055.206-.106.393.107.57l7.792 6.215-9.436 1.118M25.56 77.863c1.13.457 1.525.512 1.018 1.768-.066.161-.2.441.034.535.197.08.291-.049.356-.211.276-.681.479-1.392.755-2.074.276-.682.608-1.299.883-1.98.066-.163.088-.32-.109-.401-.234-.093-.339.219-.404.38-.518 1.231-.812 1.028-1.961.566l-7.357-2.974c-1.13-.456-1.508-.504-1-1.761.065-.161.188-.466-.045-.56-.197-.08-.309.043-.374.204-.276.681-.479 1.392-.755 2.073-.276.683-.608 1.3-.884 1.982-.072.18-.07.327.128.406.233.095.349-.193.415-.354.507-1.256.812-1.029 1.942-.572l7.358 2.973M23.955 65.334c-.066-.08-.423-.434-.349-.569.057-.101.572.007.659.01l3.515.445c.034.018.37.049.438.088.186.103-.08.464-.136.565l-1.08 1.948c-.037.067-.27.646-.439.552-.051-.029-.133-.118-.175-.163l-2.433-2.876zm3.613 4.26c-.468-.591-.592-.528-.217-1.205l1.276-2.302c.45-.812.385-.694 1.445-.571l1.587.172c.267.037.723.091.961.223.507.281.151.924-.093 1.365-.094.169-.272.49-.018.631.152.084.262-.075.319-.178.347-.626.636-1.306.974-1.916.412-.744.893-1.452 1.306-2.197.047-.083.124-.263-.028-.347-.254-.141-.432.181-.527.349-.459.83-1.601.574-2.411.479L21.75 62.806c-.121-.023-.378-.076-.454.059-.103.186.106.368.213.494l6.67 7.968c.256.297.865 1.033.981 1.383.114.352-.03.693-.199.998-.084.152-.262.473-.025.605.287.159.43-.337.524-.507.262-.473.458-.985.72-1.459.263-.474.593-.911.856-1.384.094-.17.225-.407.022-.518-.237-.132-.38.166-.464.317-.216.389-.679 1.105-1.238.796-.305-.169-.585-.502-.8-.753l-.988-1.211zM40.08 48.336c1.312-.589 2.572-.861 3.723.174 1.136 1.023.911 2.748-.06 3.828-1.179 1.308-2.551 1.271-3.917.3-.129-.088-.488-.412-.657-.225-.142.158-.008.357.094.474.335.38.695.704 1.069 1.041.258.233.608.626.986.524.904-.281 1.882-.962 2.517-1.667.751-.835 1.273-1.848 1.324-2.975.039-1.085-.331-2.121-1.136-2.845-.619-.557-1.498-.854-2.333-.852-.685.01-1.531.342-2.174.622-1.245.572-3.172 1.701-4.409.587-1.05-.945-.723-2.291.131-3.241 1.011-1.121 1.931-1.074 3.208-.497.14.048.396.226.538.069.091-.102.071-.224-.03-.314-.387-.323-.786-.631-1.173-.954-.272-.218-.419-.402-.765-.219-.696.337-1.547 1.081-2.052 1.641-1.269 1.41-1.579 3.605-.069 4.965 1.28 1.153 2.802.648 4.208.012l.977-.448M48.625 32.65c-.406-.364-.517-.603-1.063-.37-.813.341-1.975 1.074-2.623 1.657-2.631 2.369-3.203 6.478-.807 9.14 2.292 2.545 6.333 2.839 8.951.483.949-.855 1.573-1.782 2.059-2.949.252-.617.211-.633-.161-1.104l-.978-1.23c-.076-.114-.211-.148-.326-.045-.388.35 1.472 2.763-.757 4.771-1.165 1.049-2.614 1.233-4.091.923-1.355-.291-2.511-.995-3.43-2.017-1.943-2.156-2.614-5.303-.197-7.479 2.229-2.007 4.002-.27 4.375-.606.115-.104.094-.214-.01-.329l-.942-.845M58.065 36.882c.699.999 1 1.261-.109 2.037-.143.1-.408.262-.264.468.123.174.271.117.414.018.602-.422 1.161-.908 1.763-1.33.603-.421 1.217-.757 1.82-1.179.143-.1.248-.22.126-.395-.145-.206-.403-.002-.546.099-1.105.75-1.242.42-1.952-.594l-4.551-6.501c-.7-.998-.99-1.245.12-2.021.143-.1.412-.288.268-.494-.122-.176-.282-.135-.425-.034-.602.422-1.161.906-1.763 1.328-.603.423-1.217.759-1.82 1.181-.159.11-.236.236-.114.41.144.206.398.028.54-.071 1.11-.777 1.242-.421 1.941.578l4.552 6.5M61.246 24.725c-.16-.287-.417-.631-.161-.929.215-.251.959-.664 1.23-.814.576-.319 1.304-.723 1.956-.863.653-.141 1.059.033 1.603.417l.517.333c.116.09.306.273.458.188.17-.093.012-.338-.044-.439l-.807-1.456c-.122-.22-.263-.673-.584-.495-1.439.797-2.824 1.653-4.279 2.46-1.05.582-2.171 1.114-3.22 1.696-.152.085-.241.245-.147.414.112.203.383.053.553-.041 1.168-.648 1.287-.271 1.869.778l3.819 6.89c.6 1.083.856 1.384-.312 2.031-.169.094-.431.261-.328.447.104.186.277.18.429.094.338-.187.673-.461 1.012-.648l6.618-3.67c.136-.075.179-.076.13-.204l-.741-1.935c-.041-.154-.082-.308-.157-.445-.066-.118-.154-.157-.272-.091-.203.112-.069.635-.054.781.251 1.809-.662 2.359-2.118 3.166-1.337.741-2.091 1.138-2.954-.419l-1.633-2.946c-.319-.576-.149-.67.528-1.046.508-.281 1.387-.768 2.132-.982.42-.122.837.311 1.193.755.073.092.228.25.38.166.084-.047.167-.137.017-.409-.317-.532-.632-1.02-.967-1.543-.228-.494-.476-1.019-.722-1.503-.075-.135-.195-.114-.28-.067-.152.086-.1.3-.06.411.187.537.449 1.21.054 1.495-.613.451-1.502.923-2.01 1.204-.694.384-.847.469-1.288-.326l-1.36-2.455M82.548 23.726l-9.579-5.839c-.328-.205-.57-.403-.984-.348l-2.24.86c-.199.077-.427.185-.323.457.076.198.366.087.528.025 1.265-.487 1.313-.09 1.75 1.048l2.837 7.391c.43 1.119.666 1.465-.599 1.949-.163.063-.491.127-.4.363.076.198.248.214.429.145.524-.201 1.038-.481 1.544-.675.542-.21 1.076-.33 1.618-.539.181-.069.279-.19.203-.388-.09-.236-.358-.071-.521-.008-1.265.486-1.32.071-1.75-1.049l-3.135-8.167 11.375 6.953c.146.109.42.337.618.259.163-.061.03-.3-.005-.391l-3.523-9.178c-.43-1.121-.648-1.472.599-1.952.18-.069.47-.179.393-.378-.076-.199-.256-.233-.418-.172-.524.202-1.002.468-1.544.676-.542.208-1.076.33-1.618.538-.18.07-.29.216-.214.415.076.199.365.087.528.025 1.265-.486 1.331-.096 1.768 1.042l2.663 6.938M90.636 13.239c-.206-.965-.197-.928.654-1.109l1.098-.233c.587-.125 1.117-.238 1.638.167.361.299.606.8.823 1.17.062.106.132.249.264.22.209-.044.191-.218.159-.369l-.377-2.334c-.028-.133-.05-.702-.315-.646-.19.04-.191.219-.216.383-.076.569-.57.576-1.062.68l-6.872 1.461c-.303.065-.688.206-.979.049-.176-.081-.18-.198-.236-.365-.024-.113-.101-.196-.214-.172-.171.037-.18.178-.19.317l-.215 2.619c-.018.103-.046.346-.017.478.028.133.105.215.237.187.189-.04.273-.395.32-.543.587-1.708 1.251-2.026 2.974-2.393.587-.125.805-.309.95.372l1.862 8.765c.254 1.194.429 1.55-.896 1.833-.17.036-.477.081-.425.328.045.208.204.214.374.177.719-.153 1.423-.381 2.142-.533.719-.154 1.417-.223 2.136-.376.171-.036.314-.106.27-.315-.052-.246-.37-.159-.541-.122-1.306.277-1.306-.098-1.564-1.31l-1.782-8.386M100.29 20.168c.148 1.21.292 1.583-1.053 1.748-.173.02-.483.039-.452.289.026.211.185.231.358.209.73-.089 1.45-.256 2.18-.344.73-.091 1.431-.099 2.161-.188.173-.021.322-.079.296-.291-.031-.249-.355-.19-.528-.168-1.328.143-1.294-.212-1.444-1.441l-.968-7.876c-.148-1.211-.289-1.564 1.056-1.729.172-.021.499-.062.468-.311-.026-.211-.186-.25-.359-.229-.73.09-1.45.256-2.181.346-.729.089-1.43.098-2.16.187-.192.024-.32.098-.294.31.03.249.338.211.511.19 1.345-.165 1.293.212 1.442 1.421l.967 7.877M110.307 12.54c.036-.097.164-.583.318-.586.116-.002.28.498.32.575l1.373 3.267c.001.038.142.346.143.423.004.213-.442.163-.558.165l-2.226.038c-.077.002-.695.09-.698-.103-.001-.059.036-.176.054-.234l1.274-3.545zm-1.883 5.259c.278-.701.16-.777.934-.79l2.632-.046c.929-.016.794-.014 1.217.965l.646 1.461c.1.249.282.672.287.943.009.581-.725.594-1.229.602-.193.003-.561.01-.556.3.003.174.197.191.313.189.716-.014 1.45-.103 2.146-.116.852-.015 1.705.048 2.556.033.097-.002.29-.024.287-.199-.005-.289-.373-.283-.566-.28-.948.017-1.297-1.099-1.619-1.849l-4.079-9.646c-.04-.115-.122-.365-.277-.363-.213.004-.266.276-.322.432l-3.565 9.759c-.129.37-.462 1.267-.709 1.542-.247.275-.614.321-.962.327-.174.002-.542.009-.537.28.006.329.507.204.7.201.542-.01 1.083-.097 1.624-.106.542-.01 1.085.058 1.627.049.194-.003.465-.008.461-.241-.005-.271-.334-.245-.508-.242-.445.007-1.298-.036-1.309-.675-.006-.347.142-.757.253-1.069l.555-1.461zM123.36 11.84c.165-1.345.227-1.533 1.687-1.352 1.71.209 2.648 1.3 2.432 3.067-.095.768-.432 1.448-1.125 1.851-.798.467-1.595.447-2.479.339-.326-.041-.996.014-.937-.467l.422-3.438zm-2.504 7.842c-.148 1.211-.099 1.607-1.444 1.442-.173-.021-.477-.078-.508.172-.026.211.122.268.295.29.731.09 1.47.102 2.199.192.731.089 1.414.251 2.143.341.173.021.331.001.357-.21.031-.25-.298-.271-.471-.293-1.323-.181-1.203-.517-1.053-1.747l.363-2.958c.022-.173.059-.636.191-.756.11-.103.281-.064.434-.045 1.46.18 1.422.332 1.949 1.76l1.422 3.977c.119.308.189.686.573.734l2.036.25c.154.018.348.023.372-.169.033-.269-.313-.311-.466-.33-.846-.104-1.044-.869-1.308-1.584l-1.187-3.188c-.208-.532-.413-1.239-1.017-1.412 1.62-.015 3.187-.857 3.401-2.604.248-2.018-1.447-3.142-3.272-3.366-1.094-.135-2.18-.19-3.294-.326-.615-.076-1.258-.233-1.873-.308-.212-.027-.355.034-.382.245-.028.231.28.268.453.29 1.344.165 1.204.518 1.052 1.747l-.965 7.856zM137.519 22.39l-1.217-8.841c-.034-.25-.114-.552-.043-.813.09-.336.884-.084 1.019-.068.156.022.384.063.445-.161.059-.224-.127-.274-.295-.32-.58-.154-1.16-.23-1.722-.381-.673-.18-1.288-.425-1.962-.605-.168-.045-.397-.087-.452.119-.075.28.243.366.43.416.86.23.928.869 1.029 1.617l1.449 10.668c.027.127.01.563.196.613.15.04.373-.341.44-.443l6.342-8.339c.255-.353.667-.843 1.041-1.044.274-.126.57-.107.832-.037.168.045.458.082.518-.141.045-.168-.047-.273-.197-.314-.523-.14-1.066-.205-1.59-.345-.523-.141-1.064-.366-1.588-.506-.186-.051-.425-.054-.486.169-.075.281.595.401.763.446.336.09.759.304.644.734-.075.28-.353.646-.516.883l-5.08 6.693M151.625 17.353c.02-.33.104-.568-.231-.719l-2.051-.913c-.195-.086-.474-.315-.6-.033-.11.247.122.393.299.471.954.426.978.564.506 1.434l-4.035 7.588c-.44.843-.698 1.279-1.687.838-.159-.07-.468-.186-.562.026-.078.176.029.267.188.338.513.228 1.075.394 1.606.629.53.237 1.029.544 1.559.779.159.071.389.174.484-.038.11-.248-.27-.396-.447-.474-1.255-.56-.836-1.453-.285-2.5l3.756-7.056.124.056-.508 10.514c-.019.139-.061.376.115.453.16.072.299-.099.408-.199l8.018-7.447.124.056-3.566 8.008c-.142.319-.398.99-.809 1.102-.264.073-.676-.004-.941-.122-.177-.079-.532-.279-.651-.014-.085.194.101.298.243.362.689.307 1.427.551 2.134.865.567.253 1.101.575 1.666.827.142.063.344.132.431-.063.118-.265-.268-.394-.446-.473-.247-.111-.505-.247-.587-.537-.102-.343.23-1.042.356-1.325l3.251-7.301c.142-.319.378-1.04.701-1.193.246-.123.611.102.841.206.177.078.44.152.55-.095.126-.282-.231-.336-.426-.423l-1.963-.873c-.194-.087-.371-.166-.579.017l-7.358 6.724.372-9.495M174.74 31.505c.198-.264.408-.639.783-.526.318.094.998.606 1.246.793.525.396 1.189.897 1.584 1.436.393.538.399.981.27 1.634l-.094.607c-.035.144-.125.391.014.496.155.116.314-.127.384-.22l1.002-1.329c.151-.202.508-.514.215-.735-1.315-.99-2.66-1.907-3.989-2.908-.958-.722-1.901-1.53-2.859-2.252-.139-.105-.321-.12-.438.033-.139.186.108.372.263.489 1.067.804.772 1.067.049 2.025l-4.74 6.291c-.745.988-.916 1.344-1.984.541-.154-.117-.413-.288-.541-.118-.128.17-.051.325.088.431.31.232.695.426 1.005.659l6.043 4.555c.124.093.144.131.24.036l1.467-1.465c.124-.1.248-.2.341-.324.082-.108.082-.205-.026-.287-.186-.139-.609.196-.736.27-1.551.964-2.425.354-3.754-.648-1.22-.919-1.889-1.448-.817-2.87l2.026-2.689c.397-.525.551-.409 1.169.057.464.349 1.268.954 1.766 1.548.281.333.055.891-.205 1.396-.054.106-.136.31.003.415.077.058.193.098.38-.15.357-.506.675-.993 1.017-1.51.358-.411.737-.851 1.079-1.272.093-.123.024-.225-.053-.282-.139-.106-.314.029-.399.111-.415.39-.924.904-1.345.658-.661-.377-1.453-.997-1.917-1.347-.633-.477-.772-.583-.225-1.309l1.688-2.24M186.644 42.018c.71-.685.681-.658 1.287-.031l.779.807c.417.432.793.821.728 1.477-.064.465-.36.939-.558 1.318-.057.108-.141.244-.047.341.148.154.287.046.398-.061l1.78-1.557c.096-.094.568-.414.38-.609-.135-.139-.287-.045-.439.019-.524.238-.791-.177-1.14-.539l-4.88-5.054c-.215-.223-.539-.475-.561-.804-.024-.192.072-.258.185-.394.084-.08.113-.189.032-.273-.121-.125-.245-.058-.37.007l-2.334 1.205c-.097.039-.318.145-.415.24-.097.094-.126.203-.032.3.134.139.478.021.629-.016 1.759-.408 2.382-.013 3.606 1.254.417.431.688.518.187 1.002l-6.445 6.225c-.878.846-1.089 1.185-2.03.21-.12-.125-.321-.361-.503-.186-.153.148-.073.286.048.412.51.528 1.077 1.004 1.588 1.533.511.528.939 1.083 1.45 1.613.121.125.257.209.41.062.181-.175-.062-.399-.183-.524-.927-.96-.609-1.161.282-2.021l6.168-5.956M198.853 58.301c1.034-.646 1.294-.922 2.012.226.093.147.267.426.481.294.179-.113.147-.275.054-.423-.389-.624-.844-1.207-1.234-1.83-.39-.624-.693-1.256-1.083-1.879-.103-.164-.224-.249-.404-.136-.213.133-.049.396.043.543.717 1.15.354 1.263-.679 1.909l-6.713 4.194c-1.034.646-1.295.923-2.003-.209-.102-.164-.266-.427-.479-.293-.164.103-.148.274-.056.422.349.558.742 1.042 1.091 1.6.985 1.576 1.925 3.226 2.909 4.8.276.444.453.288.891.038.584-.343 1.261-.537 1.819-.886.115-.072.229-.143.138-.291-.062-.099-.235-.083-.337-.064-.556.096-1.348.18-1.896-.002-.664-.224-1.301-.876-1.67-1.468-.923-1.476-.352-1.878.896-2.658l6.22-3.887M196.525 70.075c-1.095.536-1.401.791-1.995-.426-.076-.157-.195-.444-.421-.333-.191.093-.158.249-.082.405.323.662.714 1.288 1.037 1.95.323.661.558 1.321.88 1.983.077.156.18.278.371.184.226-.11.065-.397-.012-.554-.568-1.208-.221-1.292.892-1.835l7.132-3.478c1.096-.534 1.384-.782 1.978.435.077.157.22.452.447.343.191-.094.176-.259.1-.416-.324-.661-.715-1.288-1.038-1.949-.322-.661-.558-1.321-.88-1.982-.085-.174-.197-.27-.388-.177-.226.111-.09.389-.014.546.594 1.216.221 1.292-.875 1.826l-7.132 3.478M209.164 77.297c.921-.354.885-.34 1.197.473l.403 1.047c.215.561.409 1.067.091 1.645-.239.403-.696.723-1.027.995-.095.078-.225.17-.177.297.077.198.246.154.391.098l2.245-.738c.127-.048.686-.159.589-.412-.069-.181-.246-.154-.411-.153-.576.014-.659-.473-.839-.942l-2.518-6.559c-.111-.29-.311-.648-.202-.959.053-.187.168-.21.323-.291.109-.041.179-.13.137-.238-.062-.163-.203-.151-.343-.138l-2.62.196c-.103-.001-.348.011-.474.059-.127.048-.197.137-.148.264.07.181.432.207.586.231 1.779.313 2.197.918 2.829 2.563.215.559.432.746-.218.996l-8.367 3.211c-1.137.437-1.465.667-1.95-.599-.062-.162-.155-.458-.39-.369-.199.077-.179.235-.117.398.263.686.599 1.345.863 2.032.263.687.441 1.364.705 2.051.062.163.153.293.352.217.235-.09.099-.389.036-.553-.478-1.247-.107-1.306 1.049-1.749l8.005-3.073M212.366 87.452c.32-.079.718-.238.939.086.187.272.393 1.097.468 1.399.16.638.361 1.445.328 2.112-.034.667-.306 1.014-.818 1.441l-.456.412c-.117.089-.343.225-.301.395.047.188.325.098.437.07l1.615-.402c.244-.062.719-.08.629-.437-.397-1.596-.866-3.154-1.269-4.77-.29-1.163-.514-2.385-.805-3.548-.042-.17-.173-.297-.362-.25-.224.057-.15.357-.103.545.323 1.296-.071 1.315-1.235 1.604l-7.643 1.906c-1.202.3-1.559.469-1.882-.827-.047-.188-.14-.484-.346-.432-.208.051-.245.22-.203.389.094.376.272.77.366 1.146l1.83 7.342c.038.15.028.192.165.178l2.06-.215c.159 0 .32.001.47-.036.131-.034.192-.109.159-.24-.055-.225-.596-.23-.741-.253-1.812-.227-2.107-1.251-2.51-2.865-.37-1.484-.556-2.315 1.171-2.745l3.268-.815c.637-.159.684.029.872.779.14.564.384 1.541.397 2.315.01.437-.516.728-1.038.956-.107.047-.3.156-.258.325.024.094.089.197.39.121.596-.168 1.149-.346 1.741-.534.535-.092 1.109-.196 1.639-.308.15-.038.16-.159.137-.253-.043-.169-.264-.175-.381-.165-.568.042-1.286.121-1.459-.334-.277-.709-.502-1.691-.642-2.254-.192-.77-.234-.938.649-1.158l2.722-.68M214.445 100.149c1.345-.165 1.541-.15 1.721 1.31.21 1.71-.621 2.884-2.388 3.101-.768.095-1.509-.069-2.068-.643-.647-.662-.82-1.44-.929-2.323-.04-.327-.255-.964.226-1.023l3.438-.422zm-8.216-.532c-1.209.15-1.583.292-1.748-1.052-.02-.174-.039-.483-.289-.452-.212.026-.231.185-.21.357.09.73.256 1.451.346 2.18.09.73.098 1.431.188 2.162.021.172.078.321.29.296.25-.031.19-.355.169-.529-.144-1.327.212-1.293 1.441-1.444l2.958-.363c.173-.021.632-.097.78.002.127.081.129.257.148.41.179 1.46.023 1.46-1.237 2.317l-3.514 2.342c-.27.189-.62.349-.573.734l.25 2.036c.019.153.062.343.253.319.27-.032.227-.378.208-.532-.103-.845.591-1.223 1.221-1.651l2.806-1.925c.466-.33 1.103-.7 1.124-1.327.407 1.569 1.601 2.885 3.349 2.67 2.018-.247 2.699-2.165 2.475-3.989-.135-1.095-.344-2.162-.48-3.276-.076-.615-.08-1.278-.155-1.892-.026-.21-.119-.336-.33-.31-.231.028-.193.336-.172.508.165 1.345-.212 1.294-1.441 1.445l-7.857.964zM213.998 114.968c.096.04.577.184.574.338-.002.117-.508.263-.586.3l-3.312 1.258c-.039 0-.351.13-.428.128-.213-.003-.147-.448-.145-.564l.039-2.224c.001-.077-.066-.699.128-.695.058.001.173.042.231.063l3.499 1.396zm-5.19-2.065c.691.302.77.188.756.961l-.045 2.633c-.016.928-.014.793-1.008 1.181l-1.482.594c-.253.092-.681.259-.953.254-.58-.01-.567-.745-.558-1.248.003-.194.009-.561-.281-.567-.174-.002-.197.19-.199.306-.013.717.053 1.453.04 2.151-.015.85-.107 1.701-.122 2.552-.001.097.015.29.189.293.291.005.296-.362.3-.555.016-.948 1.145-1.258 1.905-1.555l9.782-3.738c.116-.037.37-.111.372-.265.004-.213-.266-.276-.42-.337l-9.629-3.903c-.365-.143-1.25-.506-1.517-.762-.266-.256-.297-.626-.292-.973.003-.175.009-.542-.261-.547-.329-.006-.222.5-.225.693-.01.542.058 1.085.049 1.626-.01.542-.097 1.083-.106 1.625-.003.193-.008.464.224.469.271.005.257-.325.26-.5.008-.445.081-1.295.72-1.283.348.005.752.168 1.059.288l1.442.607zM214.352 128.05c1.337.211 1.522.28 1.293 1.733-.27 1.701-1.392 2.602-3.151 2.322-.765-.121-1.432-.481-1.81-1.188-.44-.815-.392-1.611-.252-2.49.05-.325.02-.996.498-.919l3.422.542zm-7.751-2.776c-1.205-.191-1.602-.156-1.39-1.494.027-.173.095-.476-.154-.514-.21-.034-.273.114-.3.286-.115.726-.153 1.464-.269 2.191-.115.726-.3 1.401-.416 2.128-.027.173-.012.332.198.365.249.039.281-.289.308-.462.228-1.315.56-1.184 1.783-.99l2.944.467c.172.026.633.079.75.216.099.114.052.282.028.435-.229 1.453-.38 1.41-1.827 1.885l-4.024 1.284c-.311.107-.692.165-.753.546l-.321 2.027c-.024.153-.035.347.156.377.268.042.322-.302.346-.455.134-.841.905-1.013 1.629-1.25l3.228-1.077c.539-.187 1.254-.369 1.446-.965-.041 1.62.744 3.214 2.484 3.489 2.007.318 3.19-1.336 3.478-3.153.173-1.089.265-2.172.441-3.28.097-.612.277-1.249.373-1.861.033-.21-.022-.357-.232-.39-.23-.036-.278.269-.305.441-.212 1.338-.56 1.186-1.784.991l-7.817-1.237zM203.126 141.789l8.879-.907c.25-.025.555-.094.813-.014.333.101.053.886.033 1.02-.028.156-.077.383.145.451.223.067.278-.118.33-.285.175-.573.271-1.151.441-1.706.204-.667.469-1.273.673-1.939.051-.166.101-.396-.103-.457-.277-.085-.374.229-.43.415-.261.852-.902.897-1.653.972l-10.711 1.077c-.128.02-.564-.012-.62.175-.046.147.328.382.428.454l8.112 6.628c.343.268.819.697 1.006 1.077.117.279.088.574.009.833-.051.167-.099.455.124.523.166.051.274-.038.319-.185.158-.518.243-1.059.401-1.577.158-.519.403-1.051.561-1.569.056-.185.069-.425-.154-.493-.277-.085-.419.58-.47.747-.102.333-.33.749-.756.618-.277-.085-.634-.376-.865-.547l-6.512-5.311M207.783 156.111c.33.032.565.125.726-.206l.984-2.018c.093-.191.333-.46.055-.597-.244-.118-.398.108-.483.282-.458.939-.596.958-1.449.455l-7.443-4.297c-.827-.468-1.254-.741-.778-1.715.076-.157.203-.462-.006-.562-.174-.085-.268.019-.345.176-.245.505-.431 1.06-.685 1.583-.255.52-.579 1.009-.834 1.53-.076.157-.186.383.023.485.243.119.404-.255.489-.429.603-1.235 1.481-.786 2.508-.198l6.921 4-.06.122-10.49-.875c-.139-.024-.373-.074-.458.1-.076.156.09.303.186.413l7.162 8.275-.06.121-7.88-3.843c-.312-.153-.973-.433-1.072-.847-.064-.267.027-.675.155-.936.084-.174.297-.522.036-.649-.191-.094-.301.089-.37.228-.33.678-.6 1.408-.939 2.104-.272.556-.613 1.079-.884 1.636-.068.139-.145.339.047.433.261.126.404-.255.489-.43.119-.244.264-.495.558-.568.344-.09 1.032.267 1.31.403l7.184 3.504c.313.152 1.026.414 1.168.741.114.25-.124.607-.235.833-.084.175-.168.435.075.554.278.135.344-.22.437-.411l.943-1.931c.092-.192.177-.366.003-.58l-6.463-7.588 9.475.702M192.403 172.51L191.591 171.853 189.216 174.786 186.283 172.411 185.626 173.222 188.559 175.597 186.195 178.515 187.008 179.173 189.371 176.256 192.288 178.618 192.946 177.806 190.028 175.443 192.403 172.51M52.561 184.007c.093-.318.229-.53-.064-.751l-1.793-1.352c-.171-.128-.39-.415-.577-.167-.163.217.03.409.185.525.835.63.826.77.17 1.511l-5.639 6.487c-.616.721-.966 1.089-1.831.437-.139-.105-.414-.288-.553-.103-.117.155-.032.268.107.373.448.337.958.625 1.422.974.464.35.881.761 1.344 1.111.14.104.34.255.481.07.163-.216-.174-.445-.329-.563-1.097-.826-.487-1.602.285-2.499l5.247-6.03.108.082-2.86 10.13c-.051.133-.144.352.01.469.14.105.314-.03.442-.104l9.488-5.451.108.082-5.276 7.001c-.21.277-.61.874-1.036.892-.274.011-.657-.157-.889-.331-.155-.117-.456-.392-.631-.161-.128.171.03.315.154.408.603.454 1.268.858 1.886 1.324.495.372.942.807 1.437 1.18.124.093.306.206.434.036.174-.233-.174-.447-.328-.563-.216-.163-.437-.353-.452-.655-.022-.357.459-.963.646-1.21l4.81-6.384c.21-.278.602-.927.951-1.004.267-.064.572.239.773.39.155.116.395.248.557.031.187-.246-.15-.379-.32-.507l-1.715-1.293c-.17-.129-.325-.245-.569-.113l-8.681 4.896 2.498-9.168M73.407 202.92c-.636 1.304-1.465 2.342-2.792 2.988-1.335.618-2.832.686-4.172.032-1.321-.644-2.276-1.778-2.619-3.194-.36-1.425-.029-2.9.608-4.203.611-1.253 1.543-2.413 2.826-3.015 1.353-.654 2.885-.616 4.242.045 1.305.636 2.164 1.787 2.516 3.187.352 1.484.045 2.821-.609 4.16zm-10.541-5.142c-1.544 3.166.174 7.105 3.305 8.632 3.305 1.612 7.182.64 8.819-2.718 1.638-3.357.009-6.994-3.296-8.606-3.13-1.527-7.284-.473-8.828 2.692zM92.595 204.4c.109-.632.387-.998-.183-1.411-.802-.596-1.916-1.074-2.869-1.33-3.59-.962-7.795.676-8.797 4.416-.481 1.793-.087 3.463.991 4.973 1.023 1.417 2.488 2.229 4.171 2.68 1.364.366 2.898.477 4.257.039.505-.166.467-.396.597-.882l.576-2.149c.075-.28.183-.833.481-.974.166-.096.447-.02.62.006l.365.057c.168.047.36.077.42-.147.05-.187-.108-.269-.257-.309-.654-.176-1.31-.271-1.946-.442-.673-.18-1.326-.435-1.999-.616-.168-.045-.43-.114-.495.129-.065.242.202.294.388.344 1.085.291 1.227.509.946 1.557l-.416 1.55c-.12.449-.298 1.262-.776 1.475-.638.29-1.635.123-2.271-.047-1.608-.431-2.857-1.226-3.592-2.746-.663-1.34-.705-2.753-.324-4.174.361-1.347 1.254-2.809 2.418-3.64 1.269-.922 2.721-1.035 4.198-.638 3.309.886 2.308 3.203 2.943 3.373.206.056.331-.111.381-.299l.173-.795M104.767 214.443l-2.734-8.495c-.076-.24-.207-.524-.183-.793.03-.348.856-.236.992-.244.156-.006.389-.005.409-.236.02-.232-.172-.248-.346-.264-.597-.052-1.183-.025-1.761-.076-.694-.061-1.343-.195-2.037-.256-.173-.016-.406-.017-.425.196-.025.289.302.319.495.335.887.078 1.066.694 1.295 1.415l3.279 10.253c.048.121.107.554.3.57.155.013.307-.4.356-.512l4.798-9.315c.189-.39.51-.946.843-1.208.249-.172.543-.205.813-.181.173.015.466.002.486-.23.015-.173-.094-.261-.248-.273-.539-.048-1.086-.018-1.626-.065-.54-.048-1.112-.176-1.651-.222-.193-.017-.429.02-.45.252-.025.289.655.291.828.305.347.03.801.167.763.611-.025.29-.236.698-.356.959l-3.84 7.474M126.313 213.801l-7.598-8.253c-.259-.289-.437-.545-.85-.606l-2.391.209c-.212.019-.461.06-.436.349.019.213.327.185.501.171 1.35-.119 1.287.275 1.394 1.489l.689 7.887c.105 1.195.236 1.591-1.113 1.71-.174.014-.506-.015-.485.236.019.213.18.276.372.259.56-.049 1.131-.177 1.671-.224.579-.051 1.125-.021 1.704-.071.193-.018.321-.106.302-.319-.021-.251-.325-.165-.499-.15-1.349.118-1.288-.295-1.392-1.49l-.763-8.715 9.019 9.818c.109.146.31.44.522.421.174-.016.111-.282.103-.379l-.857-9.794c-.104-1.195-.218-1.593 1.113-1.71.193-.017.501-.043.483-.255-.019-.212-.182-.295-.355-.28-.559.049-1.093.173-1.671.223-.578.052-1.125.021-1.703.071-.193.018-.339.128-.32.34.018.212.327.186.501.17 1.35-.119 1.306.274 1.412 1.488l.647 7.405M137.811 203.301c-.239-.957-.229-.92.616-1.131l1.089-.272c.582-.145 1.108-.276 1.642.11.371.286.634.779.863 1.14.066.104.141.244.273.211.206-.05.183-.224.145-.375l-.459-2.319c-.032-.131-.074-.699-.336-.634-.189.047-.184.226-.203.391-.056.571-.549.594-1.038.716l-6.816 1.701c-.301.073-.681.229-.977.083-.178-.076-.187-.193-.249-.357-.027-.113-.107-.193-.219-.165-.169.042-.174.183-.179.323l-.124 2.625c-.014.104-.033.348 0 .479.032.131.112.212.244.178.188-.047.258-.403.301-.553.526-1.727 1.179-2.069 2.887-2.495.583-.146.794-.338.962.338l2.168 8.695c.295 1.183.483 1.535-.832 1.863-.169.041-.473.097-.413.342.052.206.211.206.38.164.714-.178 1.409-.431 2.122-.608.714-.178 1.408-.272 2.122-.449.169-.042.311-.118.259-.325-.06-.244-.376-.146-.545-.104-1.296.324-1.309-.051-1.609-1.253l-2.074-8.319M150.787 208.18c.437 1.138.666 1.465-.599 1.951-.163.062-.459.155-.368.39.076.198.235.179.397.116.687-.263 1.346-.599 2.032-.862.687-.264 1.365-.441 2.052-.705.162-.062.293-.154.217-.352-.09-.235-.391-.099-.553-.038-1.254.462-1.307.109-1.75-1.047l-2.844-7.409c-.437-1.137-.659-1.447.606-1.931.162-.064.469-.182.379-.416-.076-.199-.242-.198-.404-.135-.686.264-1.346.599-2.032.862-.687.264-1.365.442-2.052.705-.18.07-.286.172-.21.37.091.236.38.125.542.063 1.265-.486 1.307-.108 1.743 1.03l2.844 7.408M168.174 199.289l-10.299-4.447c-.354-.159-.62-.322-1.022-.208l-2.1 1.163c-.186.103-.397.242-.256.496.104.186.374.035.526-.048 1.185-.657 1.289-.272 1.879.795l3.838 6.924c.582 1.048.864 1.357-.321 2.013-.152.085-.469.194-.347.413.104.187.277.179.446.085.491-.271.961-.621 1.435-.883.508-.282 1.02-.477 1.526-.758.17-.095.251-.228.148-.414-.122-.22-.364-.019-.517.065-1.185.657-1.297.254-1.879-.795l-4.241-7.65 12.233 5.301c.159.088.462.275.648.171.152-.084-.014-.301-.06-.386l-4.766-8.599c-.582-1.05-.847-1.368.321-2.015.169-.093.44-.244.337-.43-.103-.187-.286-.197-.438-.112-.491.272-.927.603-1.435.884s-1.019.478-1.527.759c-.169.094-.258.253-.155.439.103.186.374.036.527-.048 1.184-.658 1.304-.281 1.895.785l3.604 6.5M174.612 186.961c-.03-.1-.229-.561-.109-.659.09-.073.527.221.606.256l3.093 1.73c.025.029.324.185.373.245.134.166-.248.4-.339.474l-1.729 1.401c-.06.049-.492.498-.614.348-.038-.045-.08-.16-.102-.217l-1.179-3.578zm1.755 5.303c-.213-.724-.352-.712.249-1.198l2.046-1.656c.722-.585.617-.5 1.554.011l1.407.754c.233.134.637.355.808.566.365.451-.207.914-.598 1.23-.15.123-.437.354-.254.581.11.134.273.027.363-.046.556-.451 1.079-.974 1.621-1.412.662-.536 1.373-1.012 2.034-1.547.075-.062.214-.199.103-.333-.182-.226-.468.005-.618.127-.737.597-1.699-.069-2.415-.46l-9.152-5.09c-.104-.067-.322-.213-.443-.115-.165.133-.04.38.013.538l3.199 9.884c.126.372.416 1.284.391 1.653-.026.368-.286.63-.558.849-.135.109-.421.341-.25.551.207.256.525-.15.675-.272.422-.342.794-.743 1.215-1.084.421-.34.891-.621 1.312-.962.151-.123.362-.293.215-.474-.171-.211-.414.013-.55.121-.345.28-1.044.771-1.446.275-.219-.27-.354-.684-.459-.997l-.462-1.494z" transform="translate(165 254.5)"/>
                <path fill="#757c89" d="M117.745 139.895l-.442-.385h-8.626l-.387.385.166 10.507c.995.497 1.825.276 3.041.386 1.825-.497 3.981-.166 5.972-.277l.276-.385v-10.231zm2.143 11.988l-.383-.383c-4.051-.164-8.321-.164-12.317 0-1.041 1.04.602 1.97 1.04 2.9 3.886.22 7.006.22 10.893 0l.767-2.517zm-12.444-12.422l-.949-.223s-.346 7.892.207 11.034c.033-.502.727.308.758-.207.176-2.842-.062-7.73-.016-10.604zm11.077-2.816H107.41l-.283.395c.144.798.475.927.926 1.153l10.131-.108.45-.481c-.057-.34.112-.734-.113-.959zm-4.655-7.973c-.985-.274-.164-1.478-.766-1.972-1.369.056-.11 1.644-1.095 2.08-.383.11-1.205.439-1.423-.272.054-.329.656-.603.656-.931-.875.328-1.642 1.095-2.244 1.752l.93 1.971c1.698.711 3.34-.274 4.982-.439.492-.383 1.368-1.26 1.04-2.081l-2.08-.108zm-1.423 6.405c-.274-.657-1.15-1.479-1.971-1.588-.493.767.274 1.313.657 1.861.329.548.985.219 1.314-.273zm1.313-1.727c.032-.839-1.018-.72-1.86-.737l.109.384c.493-.055 1.313 1.011 1.751.353zm55.128 27.619l-3.285.288c-1.587-.403-3.723-.403-5.366 0l-94.979.574-1.314.114c-1.369.232-2.682-.401-3.832 0H46.97l-.384.289c-.492.229-.054.574 0 .805 5.639.919 11.387-.518 16.971.171l115.99-.29.394-.573c.547-.402.11-1.206-.382-1.378h-10.675zm-.691-2.047c-1.211.172-118.812.752-118.812.752l-.385.289c.055.287-.11.747.165.975l104.423-.459c7.593-.344 16.517.439 23.834-.365-.055-.287-.064-.758-.34-.987-2.475-.403-6.409-.607-8.885-.205zm5.582-1.532c-2.365-.804-5.281-.287-7.921-.461l-68.278.461c-14.854-.058-30.023.134-45.208.077-.165.23-.346.959-.071 1.129l113.171-.402c2.366-.517 5.117-.171 7.647-.286l.66-.518zm-3.576-2.429c-16.01-.116-29.439.512-45.45.341l-3.855.185-65.131.164c-.33.057-.495.402-.44.69.33.171.551.401.935.287l60.63-.287c2.2-.172 4.786-.172 6.877 0l43.024-.231c1.1-.632 2.695 0 3.796-.574.165-.345-.221-.402-.386-.575zm-100.453-.934c-2.931-.498-6.193-.166-9.289-.275-.553.275-.222.995.276 1.05h8.625c.166-.221.498-.387.388-.775zm-1.604-2.376h-6.358l-.387.662c1.824.996 4.534.278 6.745.388l.387-.276c.056-.331-.055-.72-.387-.774zm16.586.376c-1.843-1.006-4.356-.392-6.534-.559l-.559.391c-.112.392.168.559.28.838h6.142l.671-.67zm.87 1.843c-2.569-.446-5.673-.167-8.353-.224l-.559.392c-.112.39.168.558.391.78h7.571c.746-.083 1.173-.166.95-.948zm20.586-.451h-8.818c-.279.279-.39.899.056 1.122h8.642l.391-.223c.335-.224-.216-.675-.271-.899zm-.662-1.737c-1.954-.502-4.525-.1-6.648-.213-.446.279-.446.67-.111.95l6.269.003c.279-.056.546-.404.49-.74zm22.285-.308h-5.418l-.554.773c1.936.444 4.258.332 6.248.166.442-.332.166-.828-.276-.939zm1.873 3.003l-.325-1.063h-8.248c-.276.111-.765.823-.488 1.101 2.765.22 6.296.184 9.061-.038zm20.922-.502l-.448-.768-9.907.188c-.276.448-.276.972.166 1.27l10.062-.053.127-.637zm-1.84-2.114c-1.658-1.381-4.147-.11-6.248-.276-.277.332 0 .828.276.94l5.861-.278.111-.386zm15.976-.665h-5.75l-.498.775c1.936.72 4.479.388 6.636.276.331-.386 0-.885-.388-1.051zm-3.87 2.103s-2.82-.351-3.87-.238c-.111.497.056 1.166.277 1.386l9.554-.166c.222-.055-.333-1.11-.389-1.11-1.498-.223-3.692.128-5.572.128zm-99.672-29.038l.113 26.473c1.92.494 4.278.219 6.198.273l.932-.767-.11-25.98 1.373.001-.046 28.228 2.084 2.358 3.291.11c.878-.658.384-1.92 1.592-2.468l.051-28.228h1.155l.045 26.363c1.975.493 4.333.164 6.473.275l.549-.55V124.16l1.326.001v28.228c1.481 4.114 6.353 1.541 9.479 2.255.329-.932.521-2.014 1.728-2.235.045-3.815-.014-15.623-.099-28.245l1.111-.003.113 26.363c2.029.383 4.662.493 6.582-.111V124.16l1.373.001-.003 11.7c.761.299 2.15-.094 3.138-.202-.549-2.141-.933-4.39-1.701-6.473.988-.878 2.03-2.358 3.291-2.908-.62-.465-.829-1.286-.802-2.117h1.585c-.003.048-.007.091-.012.131.383.601.711 1.423 1.478 1.587.547-.328.766-1.094 1.04-1.696l-.011-.025 1.955.003c-.348.747-.317 1.642-1.009 2.281 5.54 1.756 0 6.035.658 9.052 1.098.385 2.382-.2 3.37.568.054.877.327 2.951-.711 3.333l.164 10.695.579.434c.329-.055.767.164.932-.275V124.16l1.142.001v19.781c.165 2.193-.439 4.716.549 6.582 2.029-.111 4.333.329 6.198-.384v-25.979h1.435v28.062l2.249 2.36h6.199c.603-.164.713-.823.659-1.427.164-1.151 1.426-.273 1.974-.933v-28.062h1.056l.261 25.705.274.783h5.759l.384-.783-.087-25.705h1.572l.106 24.003.165 3.786 2.084 2.414 3.016.108c.385-.273.878-.437.659-1.041-.165-.878.823-1.042 1.317-1.316l-.207-27.954h1.1l.213 25.705.384.383c2.14-.109 4.553.329 6.473-.383l-.092-25.705h1.319l.105 23.789c.135 2.053-.44 4.736 1.146 5.731.764 1.038 2.183.272 3.165.656 1.29 3.144 3.896.89 4.967 3.547 2.292 0 1.676 2.385 4.605 2.526.655 1.091.756 2.382.211 3.31l-134.987.441c-.382-.93-.491-2.511.11-3.276.873.054 1.746.054 2.347-.491.163-.437-.328-1.255.436-1.31 1.037 0 2.238.11 2.729-.927 0-.601.164-1.256.928-1.202.71-.054 1.637.274 2.074-.491.327-.545-.164-1.418.655-1.692 1.31-.328 3.657.765 3.93-.927-.383-1.202 1.146-.875 1.309-1.857 0 0-.047-13.194-.115-27.825l.97-.002z" transform="translate(165 254.5)"/>
                <path fill="#757c89" d="M122.406 34.348c-1.26-2.627-4.105-3.502-6.46-4.598-4.926-1.094-9.306.766-12.207 4.16v.548l18.667-.11zm.54 1.033l-19.551.05c-.274.164-.65 1.061-.103 1.28H123.1l.237-.391c.109-.384-.282-.72-.391-.939zm13.091 5.099c-3.339-.821-6.295-2.628-10.072-2.464-11.168.109-23.212-1.149-33.23 2.079-5.474 2.027-11.113 5.421-14.343 10.787h62.244l7.5-.275v-.384c-3.34-4.323-7.719-7.336-12.099-9.743zm31.971 28.904l-109.871.274c-1.04.219.329.657 0 1.204-.274 2.081-.602 4.379.274 6.296l109.433-.274.547-.493c-.164-2.353.328-4.926-.383-7.007zm-9.636-8.376l-2.736-.273c-.548.767-.986-.438-1.588.109l-84.086.439c-4.051-.166-7.883.328-10.62 3.393l.273.383 94.981-.273c4.215-.548 8.923.054 13.137-.492-1.97-3.011-5.912-4.107-9.361-3.286zm2.409-1.313c-3.01-4.982-10.017-2.519-15.273-3.175l-74.068.274c-1.369.328-4.708 2.737-4.106 3.393l92.626-.219.821-.273zm-15-7.883c-.821.109-1.532.219-2.244.109l-65.418.274c-2.3.438-4.708 1.149-6.022 3.285l.274.273 81.95-.164.767-.22c-1.697-3.502-5.803-3.338-9.307-3.557zm25.073 13.904H141.84l-86.057.384-.383.274c-.109.328.625 1.046.899 1.099l113.813-.331s1.107-.231 1.107-.752c0-.299-.255-.51-.365-.674zm-3.121 12.099h-22.881l-86.167.382-.548.548c.11.438-.164 1.041.438 1.313l95.473-.164 2.135-.218c2.463.382 5.474.382 7.993 0 1.313-.603 4.051.767 4.215-1.204-.11-.275-.383-.603-.658-.657zm-96.996 4.687c-.279-.881-.893-1.057-1.563-1.526-2.96.118-5.976-.234-8.712.293-.893.176-1.954.939-1.787 2.112.223.646.894 1.35 1.619 1.233.392-.059.782-.234.838-.704-.335-.587-.838 0-1.228 0-.112-.234-.559-.353-.391-.704.223-.587.838-.881 1.34-1.116 2.625.118 5.696.47 8.153-.292.447.234 1.173.645 1.061 1.291-.446.821-1.005-.412-1.731 0-.279.234-.447.587-.391.996.335.646 1.117.704 1.731.823 1.061-.236 1.173-1.41 1.061-2.406zm16.192-.822c-2.737-1.291-6.31-.469-9.382-.704l-1.786 1.409c-.336.762 0 1.583.558 2.112.67.117 1.34.411 1.899-.295.223-1.642-1.117.06-1.508-.996-.224-.47.335-.646.558-.939 2.736-.177 6.031.352 8.712-.469.279.352 1.117.41.781 1.173-.502 1.231-1.172-.646-1.842 0-.168.469-.335 1.291.111 1.643.838.528 1.676-.234 2.122-.821.615-.646.112-1.526-.223-2.113zm44.14.826c-.39-.939-1.34-1.468-2.122-1.819-3.295.41-7.315-1.057-9.828 1.291-.279.763-1.117 1.701 0 2.405.614.234 1.451.704 2.01.117.168-.411.335-1.115-.111-1.408-.559-.293-.67.528-1.062.587-.223-.294-.558-.469-.391-.88.448-.528.894-.939 1.564-.998 1.619.822 3.685.294 5.528.47 1.062-.176 2.57-1.525 3.463 0-.056 2.405-1.619-1.291-2.122.939.335.644 1.005 1.114 1.731 1.173.95-.059 1.005-1.173 1.34-1.877zm-23.776-1.119c-3.351-1.057-6.813-.411-10.219 0-.782.528-1.173 1.408-1.173 2.406.224.996 1.229 1.291 2.122 1.291.335-.295.503-.646.558-.999-.111-.879-1.117-.058-1.34-.704-.447-.292.112-.527.223-.704 2.793-.821 6.367-.175 9.159-.587l.502.587c.057 2.289-1.339-.939-1.842.821-.168.412.167.587.391.882.558.468 1.619.234 2.01-.295-.112-1.056.894-1.995-.391-2.698zm43.759 1.299c-.949-3.462-5.081-1.643-7.538-2.113-1.732.47-4.357-.645-5.082 1.819-.224.821.279 1.35.782 1.82.502.234 1.284.234 1.619-.294.446-1.466-1.117-.528-1.452-1.232.168-.528.67-.88 1.173-.88 2.904.763 5.752-.176 8.599-.235l.95.821c0 1.878-1.396-.234-1.899.821.056.822.894.764 1.341 1.174.949 0 1.172-.997 1.507-1.701zm15.571-1.996l-8.153-.117c-.894.176-1.843.587-2.289 1.525-.168.529-.335 1.468.279 1.82.558.235 1.395.881 1.843 0 .446-1.408-.838-.41-1.341-1.115-.391-.351.279-.528.446-.822 2.738-.351 5.864.117 8.545-.41l.559.527c.279.354.111.881-.28 1.115-.503.118-.837-1.115-1.34-.234-.335.234.112.529.112.821.67.587 1.787.529 2.289-.292.838-.881.279-2.172-.67-2.818zm-56.191 43.471c.012-.344.064-.688.144-1.009.713-1.151 1.865-2.359 3.291-2.249 1.262.657 2.029 1.974 2.633 3.182l-.033.069-1.955.007c-.369-.884-.221-2.388-1.576-2.332-1.201.155-.859 1.458-.919 2.337l-1.585-.005zm-50.206 0c-.077-16.564-.18-34.97-.266-38.158-1.146-.328-1.802-1.418-2.238-2.346 1.255-1.748-2.238-2.294-.655-3.822.164-1.036-2.074-2.238-.109-2.729l.109-6.822c-.874-1.201-3.057-2.292-2.729-4.203.6-1.472 2.238-.437 3.275-.928 1.855-2.728 4.803-3.601 7.586-4.42 1.256-1.855 3.275-3.93 5.349-4.857 1.255-1.965 3.384-3.439 5.513-4.093 4.802-6.441 11.734-11.735 19.375-13.21l6.167-1.2c.546-.655.055-1.746.382-2.456 3.057-4.911 8.897-6.986 14.846-5.784 3.001.763 5.566 2.892 7.695 5.511 0 .928-.109 1.965.928 2.347 9.497.492 17.902 4.64 24.069 12.335.601.273.983 1.036 1.747.929 3.384 1.309 4.749 5.074 8.242 6.112 2.074 1.364 3.329 3.984 5.894 4.202 2.893.382 3.111 5.021 6.386 4.203.437.437.327 1.309.163 1.855-.6 1.038-1.965.983-2.511 2.184v7.641c1.747 1.145-1.255 2.347.164 3.929-.6.982-1.309 1.855-1.2 3.111l-1.965 2.511.168 38.158h-1.319l-.072-20.098c.384-.713-.329-12.889-.275-18.704-.768-.603-1.316-1.591-1.81-2.469h-2.359c-.603 1.372-2.578 1.372-2.797 3.017l.165 9.05c0 1.262-.165 2.853.109 4.224-.439 1.537-.22 2.578-.109 4.224l.17 20.756h-1.1l-.287-38.802c-1.262-.603-2.03-1.866-1.864-3.292-.989-.548-1.702-.11-2.744 0 0 1.755-1.481 2.414-2.414 3.565l.169 38.528-1.572.001-.132-38.802-1.591-2.36h-3.181c-.878.44-1.371 1.207-2.084 1.865l.397 39.297h-1.056v-1.831l-.274-36.807-.274-.438c-1.153.383-1.92-.494-2.469-1.317-.275-.494.055-1.207-.549-1.536h-4.717c-.219 1.536-1.481 2.413-2.798 3.127v38.801l-1.435.001V85.359l-.933-.933c-.054-1.645-1.755-1.427-3.016-1.427-1.591-.218-1.591 1.592-2.798 2.25v38.911l-1.142.001v-37.76c.055-.549-.385-.933-.932-.878-1.098-.495-2.249-1.646-1.976-3.071-1.59-.495-3.51-.166-5.265-.22-.933.329-2.249-.275-3.017.494-.055 1.48-1.756 2.413-2.743 3.291l-.008 38.144h-1.373V85.523l-.932-1.317c.164-1.974-2.195-.713-3.292-1.097-1.316.713-1.206 2.468-2.633 3.072l.162 37.979-1.111.001c-.124-18.223-.303-38.144-.303-38.144l-1.59-.932c-.603-.714-1.042-1.646-.659-2.633-1.92 0-3.949-.549-5.814 0-.329 1.48-1.481 2.633-2.742 3.455v38.253l-1.326.001v-37.87c-.22-.932-1.811-1.316-1.482-2.523-2.249-2.031-4.059.823-5.649 2.249l.064 38.144h-1.155l.058-32.056-.274-6.363c-1.207-.657-2.194-1.865-1.975-3.4-.823.11-1.81-.22-2.468.274.164 1.426-1.262 2.412-2.249 3.126l-.064 38.419h-1.373l-.164-38.254-.932-.822c.384-2.414-2.359-1.263-3.675-1.537l-2.523 2.359.161 38.254h-.97z" transform="translate(165 254.5)"/>
                <path stroke="#757c89" stroke-width="2.234" d="M.117 113.016C.117 50.68 50.648.148 112.984.148c62.336 0 112.868 50.532 112.868 112.868 0 62.335-50.532 112.867-112.868 112.867S.117 175.351.117 113.016z" transform="translate(165 254.5)"/>
                <path stroke="#757c89" stroke-width="1.106" d="M4.088 113.016c0-60.142 48.754-108.897 108.896-108.897 60.143 0 108.896 48.755 108.896 108.897s-48.753 108.896-108.896 108.896c-60.142 0-108.896-48.754-108.896-108.896z" transform="translate(165 254.5)"/>
            </g>
        </g>
    </g>
</svg>
